<?xml version="1.0" encoding="UTF-8"?>
<svg id="Layer_2" data-name="Layer 2" xmlns="http://www.w3.org/2000/svg" viewBox="0 0 80.9 81.33">
  <defs>
    <style>
      .cls-1 {
        fill: #ebaaf4;
      }

      .cls-2 {
        fill: #ffd988;
      }

      .cls-3 {
        fill: #859fff;
      }

      .cls-4 {
        fill: #2a2d31;
      }

      .cls-5 {
        fill: #55c2c8;
      }

      .cls-6 {
        fill: #4c7ff2;
      }
    </style>
  </defs>
  <g id="Layer_4" data-name="Layer 4">
    <g>
      <path class="cls-3" d="M4.54,63.83H74.45c1.68,0,3.04,1.36,3.04,3.04v.8c0,7.54-6.12,13.66-13.66,13.66H15.16c-7.54,0-13.66-6.12-13.66-13.66v-.8c0-1.68,1.36-3.04,3.04-3.04Z"/>
      <rect class="cls-1" x="4.02" y="56.88" width="70.87" height="7.33" rx="3.66" ry="3.66"/>
      <path class="cls-2" d="M.63,56.74c-1.46,2.43,1.27,5.24,3.48,3.57,1.68-1.27,3.44-2.47,6.79-2.47,7.07,0,7.07,5.38,14.15,5.38s7.07-5.38,14.14-5.38,7.07,5.38,14.14,5.38,7.07-5.38,14.14-5.38c3.69,0,5.45,1.46,7.3,2.86,2.16,1.64,4.87-1.05,3.52-3.49l-.12-.22c-1.36-2.46-3.82-3.96-6.49-3.96H6.98c-2.57,0-4.96,1.4-6.35,3.72H.63Z"/>
      <path class="cls-4" d="M73.73,56.18H7.18c-3.95,0-7.18-3.23-7.18-7.18H0c0-3.95,3.23-7.18,7.18-7.18H73.73c3.95,0,7.18,3.23,7.18,7.18h0c0,3.95-3.23,7.18-7.18,7.18Z"/>
      <path class="cls-2" d="M.63,40.68c-1.46,2.43,1.27,5.24,3.48,3.57,1.68-1.27,3.44-2.47,6.79-2.47,7.07,0,7.07,5.38,14.15,5.38s7.07-5.38,14.14-5.38,7.07,5.38,14.14,5.38,7.07-5.38,14.14-5.38c3.69,0,5.45,1.46,7.3,2.86,2.16,1.64,4.87-1.05,3.52-3.49l-.12-.22c-1.36-2.46-3.82-3.96-6.49-3.96H6.98c-2.57,0-4.96,1.4-6.35,3.72H.63Z"/>
      <path class="cls-5" d="M1.23,36.17c-1.43,2.39,1.25,5.16,3.42,3.52,1.65-1.25,3.39-2.44,6.69-2.44,6.96,0,6.96,5.29,13.93,5.29s6.96-5.29,13.93-5.29,6.96,5.29,13.93,5.29,6.96-5.29,13.93-5.29c3.63,0,5.37,1.44,7.18,2.82,2.13,1.61,4.8-1.04,3.47-3.44l-.12-.21c-1.34-2.42-3.77-3.9-6.39-3.9H7.48c-2.53,0-4.88,1.38-6.25,3.66h0Z"/>
      <path class="cls-3" d="M73.61,32.66c1.81,0,3.12-1.73,2.62-3.47C71.41,12.29,56.79,0,39.49,0S7.57,12.29,2.75,29.19c-.5,1.74,.82,3.47,2.62,3.47H73.61Z"/>
      <g>
        <path class="cls-6" d="M41.36,13.38c0,1.03-.84,1.87-1.87,1.87s-1.87-.84-1.87-1.87,.84-3.98,1.87-3.98,1.87,2.95,1.87,3.98Z"/>
        <path class="cls-6" d="M27.22,15.94c-.4,.96-1.49,1.41-2.45,1.02-.96-.4-1.41-1.49-1.02-2.45,.4-.96,2.3-3.36,3.25-2.96,.96,.4,.61,3.44,.21,4.39Z"/>
        <path class="cls-6" d="M51.77,15.94c.4,.96,1.49,1.41,2.45,1.02,.96-.4,1.41-1.49,1.02-2.45-.4-.96-2.3-3.36-3.25-2.96-.96,.4-.61,3.44-.21,4.39Z"/>
      </g>
    </g>
  </g>
</svg>