<svg viewBox="0 0 700 268.94" xmlns="http://www.w3.org/2000/svg" xmlns:xlink="http://www.w3.org/1999/xlink"><linearGradient id="a" gradientUnits="userSpaceOnUse" x1="595.69" x2="701.48" y1="133.04" y2="133.04"><stop offset="0" stop-color="#8176b5"/><stop offset="1" stop-color="#ba77b1"/></linearGradient><linearGradient id="b" x1="660.05" x2="666.5" xlink:href="#a" y1="147.12" y2="147.12"/><linearGradient id="c" x1="624.99" x2="681.51" xlink:href="#a" y1="157.78" y2="157.78"/><linearGradient id="d" x1="658.18" x2="683.8" xlink:href="#a" y1="175.04" y2="175.04"/><linearGradient id="e" x1="652.58" x2="659.25" xlink:href="#a" y1="147.12" y2="147.12"/><linearGradient id="f" x1="633.85" x2="643.17" xlink:href="#a" y1="147.11" y2="147.11"/><linearGradient id="g" x1="644.47" x2="651.14" xlink:href="#a" y1="147.12" y2="147.12"/><linearGradient id="h" x1="4.45" x2="77.61" xlink:href="#a" y1="144.08" y2="144.08"/><linearGradient id="i" x1="34.92" x2="49.37" xlink:href="#a" y1="177.03" y2="177.03"/><linearGradient id="j" x1="130.23" x2="246.49" xlink:href="#a" y1="148.4" y2="148.4"/><linearGradient id="k" x1="186.86" x2="189.86" xlink:href="#a" y1="148.4" y2="148.4"/><linearGradient id="l" x1="196.73" x2="199.73" xlink:href="#a" y1="148.4" y2="148.4"/><linearGradient id="m" x1="206.6" x2="209.6" xlink:href="#a" y1="148.4" y2="148.4"/><linearGradient id="n" x1="216.48" x2="219.48" xlink:href="#a" y1="148.4" y2="148.4"/><linearGradient id="o" x1="147.37" x2="150.37" xlink:href="#a" y1="148.4" y2="148.4"/><linearGradient id="p" x1="157.25" x2="160.25" xlink:href="#a" y1="148.4" y2="148.4"/><linearGradient id="q" x1="167.12" x2="170.12" xlink:href="#a" y1="148.4" y2="148.4"/><linearGradient id="r" x1="176.99" x2="179.99" xlink:href="#a" y1="148.4" y2="148.4"/><linearGradient id="s" x1="226.35" x2="229.35" xlink:href="#a" y1="148.4" y2="148.4"/><linearGradient id="t" x1="149.48" x2="227.24" xlink:href="#a" y1="177.29" y2="177.29"/><linearGradient id="u" x1="306.64" x2="390.08" xlink:href="#a" y1="149.27" y2="149.27"/><linearGradient id="v" x1="299.85" x2="396.44" xlink:href="#a" y1="177.94" y2="177.94"/><linearGradient id="w" x1="323.49" x2="375.3" xlink:href="#a" y1="149.07" y2="149.07"/><linearGradient id="x" x1="453.9" x2="516.19" xlink:href="#a" y1="149.03" y2="149.03"/><linearGradient id="y" x1="454.4" x2="515.69" xlink:href="#a" y1="149.03" y2="149.03"/><linearGradient id="z" x1="507.27" x2="556.3" xlink:href="#a" y1="162.79" y2="162.79"/><path d="m684.54 129.23a28.6 28.6 0 0 0 -55.19-9.23 17.1 17.1 0 0 0 -5.27-.8 17.57 17.57 0 0 0 -17.56 17.55 16.92 16.92 0 0 0 .38 3.62 12 12 0 0 0 2.28 23.81h73.26a17.55 17.55 0 0 0 2.1-35z" fill="none" stroke="url(#a)" stroke-miterlimit="10" stroke-width="3"/><path d="m628 138.45h49.94v46.04h-49.94z" fill="#fff"/><path d="m663 150.91a5.87 5.87 0 0 1 -1.44-.19 7 7 0 0 1 -1.46-.5v1.56a6.4 6.4 0 0 0 2.8.52 4.28 4.28 0 0 0 2.68-.76 2.57 2.57 0 0 0 1-2.11 2.65 2.65 0 0 0 -.25-1.17 2.43 2.43 0 0 0 -.76-.9 6.81 6.81 0 0 0 -1.62-.86 9.59 9.59 0 0 1 -1.36-.68 1.64 1.64 0 0 1 -.55-.53 1.39 1.39 0 0 1 -.17-.67 1.19 1.19 0 0 1 .43-.92 1.87 1.87 0 0 1 1.17-.34 6.52 6.52 0 0 1 2.34.56l.52-1.34a7.12 7.12 0 0 0 -2.88-.64 3.8 3.8 0 0 0 -2.41.73 2.35 2.35 0 0 0 -.79 2 2.67 2.67 0 0 0 .56 1.72 4.66 4.66 0 0 0 1.94 1.27 6.54 6.54 0 0 1 1.77.94 1.24 1.24 0 0 1 .42.95 1.15 1.15 0 0 1 -.47 1 2.35 2.35 0 0 1 -1.47.36z" fill="url(#b)"/><path d="m677.41 129.52h-48.32a4.11 4.11 0 0 0 -4.1 4.1v48.32a4.11 4.11 0 0 0 4.1 4.1h31.78a15.25 15.25 0 0 1 -2.45-2.93h-29.33a1.17 1.17 0 0 1 -1.17-1.17v-48.32a1.17 1.17 0 0 1 1.17-1.17h48.32a1.17 1.17 0 0 1 1.17 1.17v28.59a14.93 14.93 0 0 1 2.93 2.27v-30.86a4.11 4.11 0 0 0 -4.1-4.1z" fill="url(#c)"/><path d="m681.51 177.77 1.88.49a12.8 12.8 0 0 0 .41-3.32h-1.94a11.15 11.15 0 0 0 -.4-2.81l1.87-.53a12.76 12.76 0 0 0 -1.3-3.07l-1.17.7-.48.29a10.51 10.51 0 0 0 -1.75-2.23l1.37-1.4a13.6 13.6 0 0 0 -1.94-1.53c-.24-.16-.48-.34-.73-.48l-1 1.7a10.26 10.26 0 0 0 -2.66-1l.49-1.89a12.42 12.42 0 0 0 -3.32-.45v1.94a10.26 10.26 0 0 0 -2.81.4l-.52-1.88a13.25 13.25 0 0 0 -3.08 1.3l1 1.75a10.51 10.51 0 0 0 -2.23 1.75l-1.4-1.4a12.8 12.8 0 0 0 -2 2.67l1.7 1a10.69 10.69 0 0 0 -1.07 2.62l-1.88-.48a12.31 12.31 0 0 0 -.41 3.31h1.94a11.15 11.15 0 0 0 .4 2.81l-1.87.52a11.08 11.08 0 0 0 .63 1.75 12.5 12.5 0 0 0 .66 1.32l1.69-1a10.78 10.78 0 0 0 1.74 2.24l-.22.22-1.11 1.12a13 13 0 0 0 2.67 2l1-1.68a11.32 11.32 0 0 0 2.63 1.06l-.49 1.89a13.37 13.37 0 0 0 3.33.4v-2a10.3 10.3 0 0 0 2.81-.39l.51 1.88a13.32 13.32 0 0 0 3.09-1.3l-1-1.66a10.35 10.35 0 0 0 2.13-1.66l.1-.09 1.42 1.34a13.74 13.74 0 0 0 2-2.67l-1.47-.83-.23-.13a8.43 8.43 0 0 0 .39-.8 11.85 11.85 0 0 0 .62-1.79zm-3.51-1.52a4.4 4.4 0 0 1 -.13.63 7.29 7.29 0 0 1 -1.82 3.22l-.17.15a7 7 0 0 1 -1.3 1 6.9 6.9 0 0 1 -1.72.73.73.73 0 0 0 -.43.09h-.19l-.52.08h-.84a7.16 7.16 0 0 1 0-14.31h.79l.53.08h.22l.33.07a7 7 0 0 1 1.73.69 7.63 7.63 0 0 1 1.48 1.17 7.07 7.07 0 0 1 1.91 3.19 4.29 4.29 0 0 0 .15.73 9.26 9.26 0 0 1 .11 1.17 8.19 8.19 0 0 1 -.13 1.31z" fill="url(#d)"/><path d="m652.58 142.1v10.06h1.64v-3.76h1a4.53 4.53 0 0 0 2.94-.84 2.92 2.92 0 0 0 1-2.42 2.79 2.79 0 0 0 -.93-2.27 4.35 4.35 0 0 0 -2.84-.77zm5 3.1a1.63 1.63 0 0 1 -.59 1.38 3.17 3.17 0 0 1 -1.86.41h-.88v-3.51h1.17a2.61 2.61 0 0 1 1.65.42 1.59 1.59 0 0 1 .48 1.3z" fill="url(#e)"/><path d="m633.85 152.16h1.74l1-2.83h3.85l1 2.79h1.74l-3.76-10.06h-1.79zm4.69-8.68a4.52 4.52 0 0 0 .24.86c.12.4.22.69.28.87l1 2.74h-3l1-2.62a17.46 17.46 0 0 0 .5-1.85z" fill="url(#f)"/><path d="m644.47 142.1v10.06h1.64v-3.76h1a4.53 4.53 0 0 0 2.94-.84 2.92 2.92 0 0 0 1-2.42 2.77 2.77 0 0 0 -.94-2.27 4.35 4.35 0 0 0 -2.82-.77zm5 3.1a1.65 1.65 0 0 1 -.58 1.38 3.18 3.18 0 0 1 -1.89.42h-.88v-3.53h1.17a2.61 2.61 0 0 1 1.65.42 1.58 1.58 0 0 1 .49 1.31z" fill="url(#g)"/><path d="m5.95 100.53h70.16v87.09h-70.16z" fill="none" stroke="url(#h)" stroke-miterlimit="10" stroke-width="3"/><text fill="#ba77b1" font-family="OpenSans-Bold, Open Sans" font-size="15" font-weight="700" letter-spacing=".05em" transform="translate(13.71 120.9)">010101<tspan x="4.66" y="19">10101</tspan><tspan x="13.97" y="38">010</tspan></text><path d="m34.92 167.19h14.45v19.69h-14.45z" fill="url(#i)"/><g stroke-miterlimit="10"><path d="m-.01 187.87h85.67" fill="#707070" stroke="#ba77b1" stroke-width="4.29"/><g fill="none"><g stroke-width="3"><rect height="40.94" rx=".94" stroke="url(#j)" width="113.26" x="131.73" y="127.93"/><path d="m188.36 141.31v14.18" stroke="url(#k)"/><path d="m198.23 141.31v14.18" stroke="url(#l)"/><path d="m208.1 141.31v14.18" stroke="url(#m)"/><path d="m217.98 141.31v14.18" stroke="url(#n)"/><path d="m148.87 141.31v14.18" stroke="url(#o)"/><path d="m158.75 141.31v14.18" stroke="url(#p)"/><path d="m168.62 141.31v14.18" stroke="url(#q)"/><path d="m178.49 141.31v14.18" stroke="url(#r)"/><path d="m227.85 141.31v14.18" stroke="url(#s)"/><path d="m149.48 177.29h77.76" stroke="url(#t)"/></g><rect height="56.12" rx="1.13" stroke="url(#u)" stroke-width="2" width="81.44" x="307.64" y="121.21"/></g></g><path d="m299.85 174.67c.48 3.7 3 6.54 6.12 6.54h84.35c3.08 0 5.64-2.84 6.12-6.54z" fill="url(#v)"/><path d="m374.34 146.74-17.29-17.27a3.28 3.28 0 0 0 -4.64 0l-3 3.07-3-3a3.28 3.28 0 0 0 -4.64 0l-17.28 17.23a3.31 3.31 0 0 0 0 4.66l17.28 17.26a3.26 3.26 0 0 0 4.63 0l3-3 3 3a3.26 3.26 0 0 0 4.63 0l17.27-17.26a3.31 3.31 0 0 0 .04-4.69zm-29.78 20.07a.67.67 0 0 1 -.93 0l-17.32-17.27a.68.68 0 0 1 0-.94l17.28-17.27a.66.66 0 0 1 .92 0l3 3-12.39 12.38a3.31 3.31 0 0 0 0 4.66l12.39 12.38zm4.88-30.6 12.35 12.39a.68.68 0 0 1 0 .94l-12.4 12.39-12.39-12.39a.66.66 0 0 1 0-.94zm23.05 13.33-17.28 17.27a.67.67 0 0 1 -.93 0l-3-3 12.39-12.38a3.33 3.33 0 0 0 0-4.66l-12.39-12.38 3-3a.67.67 0 0 1 .93 0l17.28 17.27a.7.7 0 0 1 0 .88z" fill="url(#w)"/><path d="m515.69 125.25v47.54a7.91 7.91 0 0 1 -2.9 5.77 21.26 21.26 0 0 1 -6.78 3.9 67.28 67.28 0 0 1 -41.93 0 21.26 21.26 0 0 1 -6.78-3.9 7.94 7.94 0 0 1 -2.9-5.77v-47.54a8 8 0 0 1 2.9-5.77 21.26 21.26 0 0 1 6.78-3.9 67.85 67.85 0 0 1 41.93 0 21.26 21.26 0 0 1 6.78 3.9 7.93 7.93 0 0 1 2.9 5.77z" fill="none" stroke="url(#x)" stroke-miterlimit="10"/><path d="m468.7 172.53a2 2 0 1 1 -2-2.05 2 2 0 0 1 2 2.05zm-2-17.36a2 2 0 1 0 2 2.1 2 2 0 0 0 -2-2.1zm49-29.92v47.54a7.91 7.91 0 0 1 -2.9 5.77 21.26 21.26 0 0 1 -6.78 3.9 67.28 67.28 0 0 1 -41.93 0 21.26 21.26 0 0 1 -6.78-3.9 7.94 7.94 0 0 1 -2.9-5.77v-47.54a8 8 0 0 1 2.9-5.77 21.26 21.26 0 0 1 6.78-3.9 67.85 67.85 0 0 1 41.93 0 21.26 21.26 0 0 1 6.78 3.9 7.93 7.93 0 0 1 2.89 5.77zm-57.17-.06a4.9 4.9 0 0 0 2 2.74 20.3 20.3 0 0 0 5.63 2.94 64.28 64.28 0 0 0 37.79 0 20.3 20.3 0 0 0 5.63-2.94 4.9 4.9 0 0 0 2-2.74 3.84 3.84 0 0 0 -1.52-2.62 18.21 18.21 0 0 0 -5.49-3.11 63.2 63.2 0 0 0 -39 0 17.86 17.86 0 0 0 -5.49 3.1 3.86 3.86 0 0 0 -1.53 2.62zm53.09 38a24.84 24.84 0 0 1 -6.2 3.16 67.82 67.82 0 0 1 -40.73 0 25 25 0 0 1 -6.2-3.16v9.61a3.83 3.83 0 0 0 1.56 2.74 18.25 18.25 0 0 0 5.49 3.08 62.91 62.91 0 0 0 39 0 17.77 17.77 0 0 0 5.49-3.07 3.88 3.88 0 0 0 1.57-2.75zm0-15.33a24.51 24.51 0 0 1 -6.2 3.16 67.82 67.82 0 0 1 -40.73 0 24.68 24.68 0 0 1 -6.2-3.16v8.94a4.64 4.64 0 0 0 1.95 2.74 19.12 19.12 0 0 0 5.58 3 64.43 64.43 0 0 0 38 0 19.12 19.12 0 0 0 5.58-3 4.64 4.64 0 0 0 1.95-2.74v-.15zm0-16.38a24.38 24.38 0 0 1 -6.3 3.23 67.79 67.79 0 0 1 -40.53 0 24.38 24.38 0 0 1 -6.3-3.23v10a4.71 4.71 0 0 0 1.95 2.75 19.69 19.69 0 0 0 5.58 3 64.43 64.43 0 0 0 38 0 19.69 19.69 0 0 0 5.58-3 4.71 4.71 0 0 0 1.95-2.75v-.16zm-44.95 7.36a2 2 0 1 0 2 2v-.07a2 2 0 0 0 -2.01-1.94z" fill="url(#y)"/><path d="m551.91 168 3.61.94a24.3 24.3 0 0 0 .78-6.36h-3.72a21.22 21.22 0 0 0 -.76-5.37l3.58-1a24.79 24.79 0 0 0 -2.48-5.89l-2.24 1.34-.92.56a20.15 20.15 0 0 0 -3.36-4.22l2.62-2.66a26.25 26.25 0 0 0 -3.7-2.94 16.12 16.12 0 0 0 -1.41-.91l-1.83 3.24a20.58 20.58 0 0 0 -5.09-2l.94-3.6a24 24 0 0 0 -6.36-.88v3.75a20.3 20.3 0 0 0 -5.37.76l-1-3.58a24.05 24.05 0 0 0 -5.89 2.48l1.92 3.34a19.85 19.85 0 0 0 -4.27 3.36l-2.67-2.69a24.56 24.56 0 0 0 -3.85 5.11l3.25 1.84a21.08 21.08 0 0 0 -2 5l-3.61-.92a23.79 23.79 0 0 0 -.78 6.34h3.7a21.22 21.22 0 0 0 .76 5.37l-3.59 1a24.91 24.91 0 0 0 1.21 3.36 26.07 26.07 0 0 0 1.28 2.53l3.23-1.88a20 20 0 0 0 3.33 4.28l-.42.42-2.24 2.24a25.4 25.4 0 0 0 5.1 3.83l1.84-3.22a21 21 0 0 0 5 2l-.94 3.61a24.84 24.84 0 0 0 6.36.78v-3.74a20.35 20.35 0 0 0 5.38-.73l1 3.58a25 25 0 0 0 5.92-2.49l-1.91-3.18a19.29 19.29 0 0 0 4.08-3.16l.2-.18 2.71 2.56a25.56 25.56 0 0 0 3.85-5.11l-2.82-1.59-.42-.25c.29-.49.49-1 .74-1.52a22.64 22.64 0 0 0 1.26-3.55zm-6.63-2.91a10 10 0 0 1 -.25 1.21 14 14 0 0 1 -3.49 6.16l-.31.29a14 14 0 0 1 -2.49 1.91 13.22 13.22 0 0 1 -3.29 1.39 1.42 1.42 0 0 0 -.83.17h-.36l-1 .16h-1.59a13.71 13.71 0 0 1 0-27.39h1.5l1 .15h.42a5.82 5.82 0 0 1 .63.14 13.23 13.23 0 0 1 3.32 1.32 15 15 0 0 1 2.84 2.24 13.83 13.83 0 0 1 2.24 2.82 13.28 13.28 0 0 1 1.38 3.34 7.15 7.15 0 0 0 .29 1.39 16.81 16.81 0 0 1 .21 2.24 16.29 16.29 0 0 1 -.22 2.48z" fill="url(#z)"/><g fill="#707070"><path d="m21.9 215.09a3.35 3.35 0 0 1 -1.17 2.75 5.23 5.23 0 0 1 -3.34.95h-1.19v4.27h-1.87v-11.42h3.29a4.94 4.94 0 0 1 3.21.88 3.13 3.13 0 0 1 1.07 2.57zm-5.7 2.13h1a3.56 3.56 0 0 0 2.11-.5 1.81 1.81 0 0 0 .68-1.56 1.75 1.75 0 0 0 -.61-1.47 3 3 0 0 0 -1.87-.49h-1.31z"/><path d="m31.38 223.06h-1.84v-5.31a2.3 2.3 0 0 0 -.41-1.49 1.53 1.53 0 0 0 -1.27-.49 2 2 0 0 0 -1.7.69 3.81 3.81 0 0 0 -.54 2.31v4.29h-1.84v-12.15h1.84v3.09a15.07 15.07 0 0 1 -.1 1.59h.12a2.56 2.56 0 0 1 1-1 3.38 3.38 0 0 1 1.56-.34q3.14 0 3.14 3.16z"/><path d="m32.41 214.42h2l1.76 4.9a9.86 9.86 0 0 1 .53 2h.06a7.84 7.84 0 0 1 .26-1c.12-.41.79-2.35 2-5.83h2l-3.7 9.79q-1 2.7-3.36 2.7a5.15 5.15 0 0 1 -1.18-.14v-1.45a4.41 4.41 0 0 0 .94.09 1.93 1.93 0 0 0 1.87-1.53l.32-.82z"/><path d="m48.22 220.6a2.26 2.26 0 0 1 -.92 1.94 4.44 4.44 0 0 1 -2.64.68 6.24 6.24 0 0 1 -2.78-.52v-1.59a6.8 6.8 0 0 0 2.84.7c1.13 0 1.69-.34 1.69-1a.85.85 0 0 0 -.18-.55 2.48 2.48 0 0 0 -.62-.45 10.81 10.81 0 0 0 -1.2-.53 5.65 5.65 0 0 1 -2-1.16 2.12 2.12 0 0 1 -.52-1.5 2 2 0 0 1 .89-1.72 4.26 4.26 0 0 1 2.44-.61 6.93 6.93 0 0 1 2.88.61l-.6 1.39a6.29 6.29 0 0 0 -2.35-.58c-1 0-1.45.27-1.45.83a.82.82 0 0 0 .38.68 8.05 8.05 0 0 0 1.65.78 8.17 8.17 0 0 1 1.56.75 2.23 2.23 0 0 1 .71.8 2.25 2.25 0 0 1 .22 1.05z"/><path d="m50 212.13a1 1 0 0 1 .27-.75 1.22 1.22 0 0 1 1.53 0 1.16 1.16 0 0 1 0 1.49 1.22 1.22 0 0 1 -1.53 0 1 1 0 0 1 -.27-.74zm2 10.93h-1.87v-8.64h1.87z"/><path d="m58 223.22a3.76 3.76 0 0 1 -3-1.15 4.76 4.76 0 0 1 -1-3.28 4.81 4.81 0 0 1 1.07-3.35 4 4 0 0 1 3.08-1.17 5.91 5.91 0 0 1 2.46.5l-.55 1.48a5.63 5.63 0 0 0 -1.93-.45c-1.49 0-2.24 1-2.24 3a3.61 3.61 0 0 0 .56 2.19 2 2 0 0 0 1.64.73 4.79 4.79 0 0 0 2.32-.61v1.6a3.64 3.64 0 0 1 -1 .41 6 6 0 0 1 -1.41.1z"/><path d="m67.89 223.06-.36-1.2h-.07a3.37 3.37 0 0 1 -1.26 1.07 4 4 0 0 1 -1.62.29 2.75 2.75 0 0 1 -2-.69 2.58 2.58 0 0 1 -.71-1.94 2.29 2.29 0 0 1 1-2 5.73 5.73 0 0 1 3-.74l1.49-.05v-.46a1.75 1.75 0 0 0 -.38-1.24 1.6 1.6 0 0 0 -1.2-.41 4.12 4.12 0 0 0 -1.27.2 9.31 9.31 0 0 0 -1.18.46l-.57-1.35a6.26 6.26 0 0 1 1.54-.56 6.94 6.94 0 0 1 1.58-.19 3.79 3.79 0 0 1 2.49.71 2.86 2.86 0 0 1 .83 2.26v5.82zm-2.73-1.25a2.23 2.23 0 0 0 1.6-.56 2 2 0 0 0 .61-1.56v-.75h-1.11a3.91 3.91 0 0 0 -1.89.44 1.32 1.32 0 0 0 -.59 1.18 1.16 1.16 0 0 0 .35.9 1.48 1.48 0 0 0 1.03.35z"/><path d="m73.5 223.06h-1.84v-12.15h1.84z"/><path d="m3.94 244.22a3 3 0 0 1 -2.53-1.17 5.3 5.3 0 0 1 -.9-3.29 5.23 5.23 0 0 1 .92-3.31 3 3 0 0 1 2.57-1.18 3 3 0 0 1 2.59 1.25h.1a11 11 0 0 1 -.14-1.46v-3.15h1.82v12.15h-1.44l-.32-1.13h-.09a2.92 2.92 0 0 1 -2.58 1.29zm.49-1.49a2 2 0 0 0 1.65-.63 3.41 3.41 0 0 0 .53-2.1v-.26a3.93 3.93 0 0 0 -.53-2.32 2 2 0 0 0 -1.67-.68 1.7 1.7 0 0 0 -1.49.78 4 4 0 0 0 -.52 2.24 3.9 3.9 0 0 0 .51 2.24 1.71 1.71 0 0 0 1.52.73z"/><path d="m16.27 244.06-.37-1.2h-.06a3.45 3.45 0 0 1 -1.26 1.07 4 4 0 0 1 -1.62.29 2.75 2.75 0 0 1 -2-.69 2.55 2.55 0 0 1 -.71-1.94 2.29 2.29 0 0 1 1-2 5.73 5.73 0 0 1 3-.74l1.49-.05v-.46a1.8 1.8 0 0 0 -.38-1.24 1.6 1.6 0 0 0 -1.2-.41 4.23 4.23 0 0 0 -1.28.2 9.79 9.79 0 0 0 -1.17.46l-.57-1.35a6.26 6.26 0 0 1 1.54-.56 6.94 6.94 0 0 1 1.58-.19 3.78 3.78 0 0 1 2.48.71 2.83 2.83 0 0 1 .84 2.26v5.82zm-2.73-1.25a2.23 2.23 0 0 0 1.6-.56 2 2 0 0 0 .61-1.56v-.75h-1.11a3.88 3.88 0 0 0 -1.89.44 1.32 1.32 0 0 0 -.59 1.18 1.16 1.16 0 0 0 .35.9 1.48 1.48 0 0 0 1.03.35z"/><path d="m23.27 242.73a4.52 4.52 0 0 0 1.35-.21v1.39a3.82 3.82 0 0 1 -.79.22 5.39 5.39 0 0 1 -1 .09c-1.74 0-2.61-.92-2.61-2.75v-4.66h-1.22v-.81l1.27-.67.63-1.83h1.13v1.92h2.46v1.39h-2.42v4.63a1.3 1.3 0 0 0 .33 1 1.2 1.2 0 0 0 .87.29z"/><path d="m31.93 244.06-.37-1.2h-.06a3.53 3.53 0 0 1 -1.26 1.07 4 4 0 0 1 -1.63.29 2.73 2.73 0 0 1 -2-.69 2.55 2.55 0 0 1 -.72-1.94 2.29 2.29 0 0 1 1-2 5.74 5.74 0 0 1 3-.74l1.49-.05v-.46a1.76 1.76 0 0 0 -.39-1.24 1.6 1.6 0 0 0 -1.2-.41 4.16 4.16 0 0 0 -1.27.2 8.62 8.62 0 0 0 -1.17.46l-.6-1.31a6.41 6.41 0 0 1 1.54-.56 7 7 0 0 1 1.58-.19 3.79 3.79 0 0 1 2.49.71 2.83 2.83 0 0 1 .84 2.26v5.82zm-2.74-1.25a2.26 2.26 0 0 0 1.61-.56 2 2 0 0 0 .6-1.56v-.75h-1.11a3.83 3.83 0 0 0 -1.88.44 1.3 1.3 0 0 0 -.59 1.18 1.15 1.15 0 0 0 .34.9 1.48 1.48 0 0 0 1.03.35z"/><path d="m43.44 244.22a3.76 3.76 0 0 1 -3-1.15 4.76 4.76 0 0 1 -1-3.28 4.81 4.81 0 0 1 1.07-3.35 4 4 0 0 1 3.08-1.17 5.91 5.91 0 0 1 2.46.5l-.55 1.48a5.63 5.63 0 0 0 -1.93-.45c-1.49 0-2.24 1-2.24 3a3.61 3.61 0 0 0 .56 2.19 2 2 0 0 0 1.64.73 4.76 4.76 0 0 0 2.32-.61v1.6a3.64 3.64 0 0 1 -1.05.41 5.92 5.92 0 0 1 -1.36.1z"/><path d="m51.49 244.22a4.16 4.16 0 0 1 -3.15-1.22 4.44 4.44 0 0 1 -1.14-3.23 4.89 4.89 0 0 1 1.06-3.33 3.63 3.63 0 0 1 2.9-1.21 3.53 3.53 0 0 1 2.7 1 4 4 0 0 1 1 2.85v1h-5.77a2.88 2.88 0 0 0 .68 1.93 2.38 2.38 0 0 0 1.81.68 6.64 6.64 0 0 0 2.84-.63v1.49a5.46 5.46 0 0 1 -1.36.46 9 9 0 0 1 -1.57.21zm-.33-7.56a1.86 1.86 0 0 0 -1.41.55 2.61 2.61 0 0 0 -.62 1.62h3.92a2.35 2.35 0 0 0 -.52-1.62 1.74 1.74 0 0 0 -1.37-.55z"/><path d="m64.53 244.06h-1.85v-5.31a2.31 2.31 0 0 0 -.4-1.49 1.55 1.55 0 0 0 -1.28-.49 2.05 2.05 0 0 0 -1.7.68 3.81 3.81 0 0 0 -.54 2.31v4.3h-1.83v-8.64h1.43l.26 1.14h.09a2.61 2.61 0 0 1 1.11-1 3.78 3.78 0 0 1 1.6-.33q3.11 0 3.11 3.16z"/><path d="m70.19 242.73a4.52 4.52 0 0 0 1.35-.21v1.39a3.82 3.82 0 0 1 -.79.22 5.39 5.39 0 0 1 -1 .09c-1.74 0-2.6-.92-2.6-2.75v-4.66h-1.15v-.81l1.26-.67.63-1.83h1.11v1.92h2.46v1.39h-2.46v4.63a1.3 1.3 0 0 0 .33 1 1.2 1.2 0 0 0 .86.29z"/><path d="m76.91 244.22a4.15 4.15 0 0 1 -3.15-1.22 4.44 4.44 0 0 1 -1.14-3.23 4.89 4.89 0 0 1 1-3.33 3.65 3.65 0 0 1 2.9-1.21 3.55 3.55 0 0 1 2.71 1 4 4 0 0 1 1 2.85v1h-5.72a2.83 2.83 0 0 0 .68 1.93 2.37 2.37 0 0 0 1.8.68 6.4 6.4 0 0 0 1.43-.15 6.8 6.8 0 0 0 1.42-.48v1.49a5.46 5.46 0 0 1 -1.36.46 9.13 9.13 0 0 1 -1.57.21zm-.34-7.56a1.84 1.84 0 0 0 -1.4.55 2.67 2.67 0 0 0 -.63 1.62h3.92a2.4 2.4 0 0 0 -.51-1.62 1.75 1.75 0 0 0 -1.38-.55z"/><path d="m86.72 235.27a4.71 4.71 0 0 1 .92.07l-.18 1.72a3.1 3.1 0 0 0 -.81-.1 2.36 2.36 0 0 0 -1.79.72 2.62 2.62 0 0 0 -.68 1.87v4.51h-1.84v-8.64h1.44l.22 1.58h.1a3.33 3.33 0 0 1 1.12-1.23 2.65 2.65 0 0 1 1.5-.5z"/><path d="m165.18 220a2.88 2.88 0 0 1 -1.1 2.39 4.8 4.8 0 0 1 -3 .87 7.25 7.25 0 0 1 -3.17-.6v-1.77a8.14 8.14 0 0 0 1.66.58 7 7 0 0 0 1.63.21 2.62 2.62 0 0 0 1.64-.42 1.38 1.38 0 0 0 .53-1.13 1.41 1.41 0 0 0 -.49-1.09 7 7 0 0 0 -2-1.05 5.41 5.41 0 0 1 -2.2-1.45 3 3 0 0 1 -.64-1.95 2.71 2.71 0 0 1 1-2.25 4.16 4.16 0 0 1 2.72-.82 8 8 0 0 1 3.27.72l-.6 1.52a7 7 0 0 0 -2.71-.64 2.1 2.1 0 0 0 -1.38.39 1.32 1.32 0 0 0 -.47 1.05 1.43 1.43 0 0 0 .19.76 1.88 1.88 0 0 0 .62.6 11.37 11.37 0 0 0 1.54.74 8.66 8.66 0 0 1 1.85 1 3.06 3.06 0 0 1 .86 1 3.11 3.11 0 0 1 .25 1.34z"/><path d="m171.05 223.22a4.13 4.13 0 0 1 -3.15-1.22 4.44 4.44 0 0 1 -1.14-3.23 4.89 4.89 0 0 1 1.05-3.33 3.65 3.65 0 0 1 2.9-1.21 3.56 3.56 0 0 1 2.71 1 4 4 0 0 1 1 2.85v1h-5.76a2.83 2.83 0 0 0 .68 1.93 2.37 2.37 0 0 0 1.8.68 6.47 6.47 0 0 0 1.43-.15 6.8 6.8 0 0 0 1.42-.48v1.49a5.46 5.46 0 0 1 -1.36.46 9.13 9.13 0 0 1 -1.58.21zm-.34-7.56a1.84 1.84 0 0 0 -1.4.55 2.67 2.67 0 0 0 -.63 1.62h3.92a2.4 2.4 0 0 0 -.51-1.62 1.76 1.76 0 0 0 -1.38-.55z"/><path d="m180.86 214.27a4.71 4.71 0 0 1 .92.07l-.18 1.72a3.1 3.1 0 0 0 -.81-.1 2.36 2.36 0 0 0 -1.79.72 2.58 2.58 0 0 0 -.68 1.87v4.51h-1.84v-8.64h1.44l.24 1.53h.09a3.36 3.36 0 0 1 1.13-1.23 2.65 2.65 0 0 1 1.48-.45z"/><path d="m186 223.06-3.28-8.64h1.93l1.76 5a10.57 10.57 0 0 1 .55 2h.04a14.16 14.16 0 0 1 .55-2l1.75-5h2l-3.3 8.64z"/><path d="m196.18 223.22a4.17 4.17 0 0 1 -3.18-1.22 4.47 4.47 0 0 1 -1.13-3.23 4.89 4.89 0 0 1 1.05-3.33 3.63 3.63 0 0 1 2.9-1.21 3.53 3.53 0 0 1 2.7 1 4 4 0 0 1 1 2.85v1h-5.75a2.78 2.78 0 0 0 .68 1.93 2.36 2.36 0 0 0 1.8.68 6.47 6.47 0 0 0 1.43-.15 6.8 6.8 0 0 0 1.42-.48v1.49a5.6 5.6 0 0 1 -1.36.46 9.22 9.22 0 0 1 -1.56.21zm-.34-7.56a1.84 1.84 0 0 0 -1.4.55 2.67 2.67 0 0 0 -.63 1.62h3.92a2.35 2.35 0 0 0 -.52-1.62 1.74 1.74 0 0 0 -1.37-.55z"/><path d="m206 214.27a4.71 4.71 0 0 1 .92.07l-.18 1.72a3.23 3.23 0 0 0 -.82-.1 2.34 2.34 0 0 0 -1.78.72 2.59 2.59 0 0 0 -.69 1.87v4.51h-1.83v-8.64h1.44l.24 1.53h.09a3.42 3.42 0 0 1 1.12-1.23 2.68 2.68 0 0 1 1.49-.45z"/><path d="m214.47 220.6a2.24 2.24 0 0 1 -.93 1.94 4.4 4.4 0 0 1 -2.64.68 6.22 6.22 0 0 1 -2.77-.52v-1.59a6.8 6.8 0 0 0 2.84.7c1.13 0 1.69-.34 1.69-1a.8.8 0 0 0 -.19-.55 2.4 2.4 0 0 0 -.61-.45 10.81 10.81 0 0 0 -1.2-.53 5.56 5.56 0 0 1 -2-1.16 2.13 2.13 0 0 1 -.53-1.5 2 2 0 0 1 .9-1.72 4.22 4.22 0 0 1 2.43-.61 6.86 6.86 0 0 1 2.88.61l-.59 1.39a6.34 6.34 0 0 0 -2.35-.58c-1 0-1.45.27-1.45.83a.8.8 0 0 0 .38.68 8.05 8.05 0 0 0 1.67.78 7.73 7.73 0 0 1 1.55.75 2.36 2.36 0 0 1 .72.8 2.25 2.25 0 0 1 .2 1.05z"/><path d="m218.5 221.38a27.14 27.14 0 0 1 -1.37 3.75h-1.35a39.23 39.23 0 0 0 .8-3.93h1.81z"/><path d="m150.87 244.06h-1.87v-5.31a2.31 2.31 0 0 0 -.4-1.49 1.55 1.55 0 0 0 -1.28-.49 2.05 2.05 0 0 0 -1.7.68 3.81 3.81 0 0 0 -.54 2.31v4.3h-1.84v-8.64h1.44l.26 1.14h.09a2.55 2.55 0 0 1 1.11-1 3.78 3.78 0 0 1 1.6-.33q3.11 0 3.11 3.16z"/><path d="m157.14 244.22a4.16 4.16 0 0 1 -3.14-1.22 4.44 4.44 0 0 1 -1.14-3.23 4.84 4.84 0 0 1 1.06-3.33 3.63 3.63 0 0 1 2.9-1.21 3.53 3.53 0 0 1 2.7 1 4 4 0 0 1 1 2.85v1h-5.76a2.88 2.88 0 0 0 .68 1.93 2.38 2.38 0 0 0 1.81.68 6.38 6.38 0 0 0 1.42-.15 6.61 6.61 0 0 0 1.42-.48v1.49a5.46 5.46 0 0 1 -1.36.46 9.13 9.13 0 0 1 -1.59.21zm-.33-7.56a1.85 1.85 0 0 0 -1.41.55 2.67 2.67 0 0 0 -.63 1.62h3.93a2.4 2.4 0 0 0 -.52-1.62 1.74 1.74 0 0 0 -1.37-.55z"/><path d="m165.8 242.73a4.51 4.51 0 0 0 1.34-.21v1.39a3.54 3.54 0 0 1 -.78.22 5.47 5.47 0 0 1 -1 .09c-1.74 0-2.61-.92-2.61-2.75v-4.66h-1.18v-.81l1.27-.67.62-1.83h1.13v1.92h2.47v1.39h-2.47v4.63a1.27 1.27 0 0 0 .34 1 1.2 1.2 0 0 0 .87.29z"/><path d="m176.4 244.06-1.12-4c-.13-.43-.38-1.42-.73-3h-.07c-.31 1.4-.55 2.4-.72 3l-1.15 4h-2l-2.42-8.64h1.81l1.1 4.26c.25 1 .43 1.95.53 2.7h.05c0-.38.13-.81.24-1.31s.2-.86.28-1.1l1.31-4.55h2l1.28 4.55c.08.26.17.65.29 1.17a8.72 8.72 0 0 1 .21 1.23h.06a23.75 23.75 0 0 1 .55-2.69l1.11-4.26h1.85l-2.44 8.64z"/><path d="m189.94 239.73a4.68 4.68 0 0 1 -1.09 3.3 3.89 3.89 0 0 1 -3 1.19 4.08 4.08 0 0 1 -2.14-.55 3.58 3.58 0 0 1 -1.43-1.57 5.37 5.37 0 0 1 -.5-2.37 4.67 4.67 0 0 1 1.08-3.28 3.9 3.9 0 0 1 3-1.18 3.82 3.82 0 0 1 3 1.2 4.72 4.72 0 0 1 1.08 3.26zm-6.29 0c0 2 .74 3 2.21 3s2.19-1 2.19-3-.73-3-2.2-3a1.88 1.88 0 0 0 -1.68.76 3.87 3.87 0 0 0 -.52 2.24z"/><path d="m196.37 235.27a4.67 4.67 0 0 1 .91.07l-.18 1.72a3.1 3.1 0 0 0 -.81-.1 2.36 2.36 0 0 0 -1.79.72 2.62 2.62 0 0 0 -.68 1.87v4.51h-1.82v-8.64h1.44l.24 1.53h.1a3.33 3.33 0 0 1 1.12-1.23 2.66 2.66 0 0 1 1.47-.45z"/><path d="m200.62 239.5 1-1.3 2.61-2.78h2.12l-3.48 3.71 3.7 4.93h-2.16l-2.77-3.79-1 .83v3h-1.82v-12.19h1.82v5.93l-.1 1.66z"/><path d="m208 233.13a1 1 0 0 1 .27-.75 1 1 0 0 1 .77-.27 1 1 0 0 1 .75.27 1.16 1.16 0 0 1 0 1.49 1 1 0 0 1 -.75.27 1 1 0 0 1 -.77-.27 1 1 0 0 1 -.27-.74zm1.94 10.93h-1.83v-8.64h1.83z"/><path d="m220 244.06h-1.84v-5.31a2.3 2.3 0 0 0 -.41-1.49 1.53 1.53 0 0 0 -1.27-.49 2.06 2.06 0 0 0 -1.71.68 3.81 3.81 0 0 0 -.54 2.31v4.3h-1.83v-8.64h1.44l.25 1.14h.1a2.55 2.55 0 0 1 1.11-1 3.77 3.77 0 0 1 1.59-.33q3.11 0 3.11 3.16z"/><path d="m229.79 235.42v1l-1.47.27a2.39 2.39 0 0 1 .33.68 2.55 2.55 0 0 1 .14.84 2.59 2.59 0 0 1 -.92 2.1 3.89 3.89 0 0 1 -2.54.77 3.42 3.42 0 0 1 -.75-.07 1.05 1.05 0 0 0 -.6.86.48.48 0 0 0 .28.45 2.35 2.35 0 0 0 1 .15h1.51a3.34 3.34 0 0 1 2.17.61 2.14 2.14 0 0 1 .74 1.75 2.55 2.55 0 0 1 -1.21 2.27 6.38 6.38 0 0 1 -3.5.8 4.81 4.81 0 0 1 -2.7-.63 2 2 0 0 1 -.92-1.78 1.87 1.87 0 0 1 .5-1.34 2.66 2.66 0 0 1 1.41-.75 1.37 1.37 0 0 1 -.61-.51 1.24 1.24 0 0 1 -.23-.73 1.28 1.28 0 0 1 .27-.82 3.19 3.19 0 0 1 .81-.66 2.41 2.41 0 0 1 -1.09-.94 2.79 2.79 0 0 1 -.42-1.53 2.75 2.75 0 0 1 .89-2.18 3.7 3.7 0 0 1 2.53-.77 5.23 5.23 0 0 1 .77 0 5.63 5.63 0 0 1 .6.1zm-6.78 10a1 1 0 0 0 .53.91 3 3 0 0 0 1.5.32 4.53 4.53 0 0 0 2.24-.43 1.29 1.29 0 0 0 .73-1.14.86.86 0 0 0 -.4-.8 3.21 3.21 0 0 0 -1.49-.24h-1.4a1.94 1.94 0 0 0 -1.25.37 1.22 1.22 0 0 0 -.47 1zm.78-7.19a1.73 1.73 0 0 0 .42 1.25 1.59 1.59 0 0 0 1.2.44c1.06 0 1.6-.57 1.6-1.71a2 2 0 0 0 -.4-1.3 1.5 1.5 0 0 0 -1.2-.45 1.57 1.57 0 0 0 -1.21.45 1.91 1.91 0 0 0 -.41 1.31z"/><path d="m233.64 242.38a26.13 26.13 0 0 1 -1.38 3.75h-1.35a36.61 36.61 0 0 0 .8-3.93h1.81z"/><path d="m166.59 262.6a2.24 2.24 0 0 1 -.92 1.94 4.4 4.4 0 0 1 -2.64.68 6.22 6.22 0 0 1 -2.77-.52v-1.59a6.76 6.76 0 0 0 2.83.7c1.13 0 1.7-.34 1.7-1a.8.8 0 0 0 -.19-.55 2.4 2.4 0 0 0 -.61-.45 10.81 10.81 0 0 0 -1.2-.53 5.47 5.47 0 0 1 -2-1.16 2.13 2.13 0 0 1 -.53-1.5 2 2 0 0 1 .9-1.72 4.2 4.2 0 0 1 2.43-.61 6.86 6.86 0 0 1 2.88.61l-.59 1.39a6.34 6.34 0 0 0 -2.35-.58c-1 0-1.45.27-1.45.83a.81.81 0 0 0 .37.68 8.52 8.52 0 0 0 1.66.78 7.73 7.73 0 0 1 1.55.75 2.36 2.36 0 0 1 .72.8 2.25 2.25 0 0 1 .21 1.05z"/><path d="m172 263.73a4.41 4.41 0 0 0 1.34-.21v1.39a3.54 3.54 0 0 1 -.78.22 5.39 5.39 0 0 1 -1 .09c-1.74 0-2.61-.92-2.61-2.75v-4.66h-1.18v-.81l1.27-.67.62-1.83h1.14v1.92h2.46v1.39h-2.46v4.63a1.3 1.3 0 0 0 .33 1 1.2 1.2 0 0 0 .87.29z"/><path d="m182.61 260.73a4.68 4.68 0 0 1 -1.09 3.3 3.89 3.89 0 0 1 -3 1.19 4.08 4.08 0 0 1 -2.14-.55 3.58 3.58 0 0 1 -1.43-1.57 5.37 5.37 0 0 1 -.5-2.37 4.67 4.67 0 0 1 1.08-3.28 3.9 3.9 0 0 1 3-1.18 3.82 3.82 0 0 1 3 1.2 4.67 4.67 0 0 1 1.08 3.26zm-6.29 0c0 2 .74 3 2.21 3s2.19-1 2.19-3-.73-3-2.2-3a1.89 1.89 0 0 0 -1.68.76 3.87 3.87 0 0 0 -.52 2.24z"/><path d="m189 256.27a4.65 4.65 0 0 1 .92.07l-.18 1.72a3.1 3.1 0 0 0 -.81-.1 2.36 2.36 0 0 0 -1.79.72 2.62 2.62 0 0 0 -.68 1.87v4.51h-1.84v-8.64h1.44l.24 1.53h.1a3.33 3.33 0 0 1 1.12-1.23 2.65 2.65 0 0 1 1.48-.45z"/><path d="m196.77 265.06-.37-1.2h-.06a3.53 3.53 0 0 1 -1.26 1.07 4 4 0 0 1 -1.63.29 2.75 2.75 0 0 1 -2-.69 2.58 2.58 0 0 1 -.71-1.94 2.29 2.29 0 0 1 1-2 5.74 5.74 0 0 1 3-.74l1.49-.05v-.46a1.76 1.76 0 0 0 -.39-1.24 1.6 1.6 0 0 0 -1.2-.41 4.12 4.12 0 0 0 -1.27.2 8.62 8.62 0 0 0 -1.17.46l-.6-1.31a6.26 6.26 0 0 1 1.54-.56 6.94 6.94 0 0 1 1.58-.19 3.79 3.79 0 0 1 2.49.71 2.83 2.83 0 0 1 .84 2.26v5.82zm-2.77-1.25a2.26 2.26 0 0 0 1.61-.56 2 2 0 0 0 .6-1.56v-.75h-1.11a3.83 3.83 0 0 0 -1.88.44 1.3 1.3 0 0 0 -.59 1.18 1.15 1.15 0 0 0 .34.9 1.48 1.48 0 0 0 1.03.35z"/><path d="m207.87 256.42v1l-1.48.27a2.4 2.4 0 0 1 .34.68 2.55 2.55 0 0 1 .13.84 2.59 2.59 0 0 1 -.92 2.1 3.87 3.87 0 0 1 -2.54.77 3.42 3.42 0 0 1 -.75-.07 1 1 0 0 0 -.59.86.48.48 0 0 0 .27.45 2.41 2.41 0 0 0 1 .15h1.51a3.32 3.32 0 0 1 2.17.61 2.11 2.11 0 0 1 .74 1.75 2.55 2.55 0 0 1 -1.21 2.27 6.36 6.36 0 0 1 -3.5.8 4.8 4.8 0 0 1 -2.69-.63 2 2 0 0 1 -.93-1.78 1.92 1.92 0 0 1 .5-1.34 2.74 2.74 0 0 1 1.41-.75 1.4 1.4 0 0 1 -.6-.51 1.25 1.25 0 0 1 -.24-.73 1.28 1.28 0 0 1 .27-.82 3.38 3.38 0 0 1 .81-.66 2.47 2.47 0 0 1 -1.09-.94 2.87 2.87 0 0 1 -.41-1.53 2.74 2.74 0 0 1 .93-2.21 3.72 3.72 0 0 1 2.53-.77 5.14 5.14 0 0 1 .77.05 5.91 5.91 0 0 1 .61.1zm-6.79 10a1 1 0 0 0 .53.91 3 3 0 0 0 1.51.32 4.49 4.49 0 0 0 2.23-.43 1.3 1.3 0 0 0 .74-1.14.86.86 0 0 0 -.41-.8 3.16 3.16 0 0 0 -1.49-.24h-1.39a2 2 0 0 0 -1.26.37 1.22 1.22 0 0 0 -.46 1zm.79-7.19a1.73 1.73 0 0 0 .42 1.25 1.56 1.56 0 0 0 1.2.44q1.59 0 1.59-1.71a1.91 1.91 0 0 0 -.4-1.3 1.5 1.5 0 0 0 -1.19-.45 1.54 1.54 0 0 0 -1.21.45 1.87 1.87 0 0 0 -.41 1.31z"/><path d="m213 265.22a4.16 4.16 0 0 1 -3.15-1.18 4.44 4.44 0 0 1 -1.14-3.23 4.89 4.89 0 0 1 1.06-3.33 3.63 3.63 0 0 1 2.9-1.21 3.53 3.53 0 0 1 2.7 1 4 4 0 0 1 1 2.85v1h-5.75a2.78 2.78 0 0 0 .68 1.93 2.34 2.34 0 0 0 1.8.68 6.47 6.47 0 0 0 1.43-.15 6.54 6.54 0 0 0 1.41-.48v1.49a5.33 5.33 0 0 1 -1.36.46 9 9 0 0 1 -1.58.17zm-.33-7.56a1.82 1.82 0 0 0 -1.4.55 2.56 2.56 0 0 0 -.63 1.62h3.92a2.35 2.35 0 0 0 -.52-1.62 1.74 1.74 0 0 0 -1.34-.55z"/><path d="m323.86 217.34a6.23 6.23 0 0 1 -1.4 4.33 5.85 5.85 0 0 1 -7.92 0 6.29 6.29 0 0 1 -1.39-4.36 6.19 6.19 0 0 1 1.4-4.34 5.15 5.15 0 0 1 4-1.52 5.06 5.06 0 0 1 3.94 1.54 6.28 6.28 0 0 1 1.37 4.35zm-8.72 0a5.13 5.13 0 0 0 .85 3.2 3.47 3.47 0 0 0 5 0 6.52 6.52 0 0 0 0-6.4 3 3 0 0 0 -2.5-1.09 3.05 3.05 0 0 0 -2.54 1.09 5.08 5.08 0 0 0 -.81 3.2z"/><path d="m330.5 223.22a3 3 0 0 1 -2.5-1.22h-.11c.07.73.11 1.17.11 1.33v3.54h-1.83v-12.45h1.48c0 .16.13.55.26 1.16h.09a2.86 2.86 0 0 1 2.58-1.31 3 3 0 0 1 2.52 1.17 5.3 5.3 0 0 1 .9 3.29 5.22 5.22 0 0 1 -1 3.27 3 3 0 0 1 -2.5 1.22zm-.45-7.45a1.91 1.91 0 0 0 -1.6.64 3.34 3.34 0 0 0 -.5 2v.28a4.05 4.05 0 0 0 .5 2.28 1.86 1.86 0 0 0 1.63.71 1.65 1.65 0 0 0 1.47-.78 4 4 0 0 0 .52-2.23 3.91 3.91 0 0 0 -.51-2.2 1.73 1.73 0 0 0 -1.51-.7z"/><path d="m339.89 223.22a4.16 4.16 0 0 1 -3.15-1.18 4.44 4.44 0 0 1 -1.14-3.23 4.84 4.84 0 0 1 1.06-3.33 3.61 3.61 0 0 1 2.89-1.21 3.53 3.53 0 0 1 2.71 1 4 4 0 0 1 1 2.85v1h-5.76a2.83 2.83 0 0 0 .68 1.93 2.38 2.38 0 0 0 1.81.68 6.38 6.38 0 0 0 1.42-.15 6.8 6.8 0 0 0 1.42-.48v1.49a5.46 5.46 0 0 1 -1.36.46 9.13 9.13 0 0 1 -1.58.17zm-.34-7.56a1.84 1.84 0 0 0 -1.4.55 2.67 2.67 0 0 0 -.63 1.62h3.93a2.45 2.45 0 0 0 -.52-1.62 1.75 1.75 0 0 0 -1.38-.55z"/><path d="m349.7 214.27a4.71 4.71 0 0 1 .92.07l-.18 1.72a3.1 3.1 0 0 0 -.81-.1 2.36 2.36 0 0 0 -1.79.72 2.62 2.62 0 0 0 -.68 1.87v4.51h-1.84v-8.64h1.44l.24 1.58h.1a3.33 3.33 0 0 1 1.12-1.23 2.65 2.65 0 0 1 1.48-.5z"/><path d="m357.44 223.06-.37-1.2h-.07a3.53 3.53 0 0 1 -1.26 1.07 4 4 0 0 1 -1.63.29 2.75 2.75 0 0 1 -2-.69 2.58 2.58 0 0 1 -.71-1.94 2.29 2.29 0 0 1 1-2 5.74 5.74 0 0 1 3-.74l1.49-.05v-.46a1.76 1.76 0 0 0 -.39-1.24 1.6 1.6 0 0 0 -1.2-.41 4.12 4.12 0 0 0 -1.27.2 8.62 8.62 0 0 0 -1.17.46l-.6-1.31a6.26 6.26 0 0 1 1.54-.56 6.94 6.94 0 0 1 1.58-.19 3.79 3.79 0 0 1 2.49.71 2.83 2.83 0 0 1 .84 2.26v5.82zm-2.74-1.25a2.26 2.26 0 0 0 1.61-.56 2 2 0 0 0 .6-1.56v-.75h-1.11a3.83 3.83 0 0 0 -1.88.44 1.3 1.3 0 0 0 -.59 1.18 1.15 1.15 0 0 0 .34.9 1.48 1.48 0 0 0 1.03.35z"/><path d="m364.43 221.73a4.52 4.52 0 0 0 1.35-.21v1.39a3.82 3.82 0 0 1 -.79.22 5.36 5.36 0 0 1 -1 .09c-1.74 0-2.61-.92-2.61-2.75v-4.66h-1.18v-.81l1.26-.67.63-1.83h1.13v1.92h2.46v1.39h-2.46v4.63a1.3 1.3 0 0 0 .33 1 1.2 1.2 0 0 0 .88.29z"/><path d="m367.3 212.13a1 1 0 0 1 .27-.75 1 1 0 0 1 .77-.27 1 1 0 0 1 .75.27 1.16 1.16 0 0 1 0 1.49 1 1 0 0 1 -.75.27 1 1 0 0 1 -.77-.27 1 1 0 0 1 -.27-.74zm1.95 10.93h-1.84v-8.64h1.84z"/><path d="m379.34 223.06h-1.84v-5.31a2.31 2.31 0 0 0 -.4-1.49 1.56 1.56 0 0 0 -1.28-.49 2 2 0 0 0 -1.7.68 3.81 3.81 0 0 0 -.54 2.31v4.3h-1.84v-8.64h1.44l.26 1.14h.09a2.55 2.55 0 0 1 1.11-1 3.78 3.78 0 0 1 1.6-.33q3.11 0 3.1 3.16z"/><path d="m389.14 214.42v1l-1.48.27a2.4 2.4 0 0 1 .34.68 2.55 2.55 0 0 1 .13.84 2.59 2.59 0 0 1 -.92 2.1 3.87 3.87 0 0 1 -2.54.77 3.42 3.42 0 0 1 -.75-.07 1 1 0 0 0 -.59.86.48.48 0 0 0 .27.45 2.41 2.41 0 0 0 1 .15h1.51a3.32 3.32 0 0 1 2.17.61 2.11 2.11 0 0 1 .74 1.75 2.55 2.55 0 0 1 -1.21 2.27 6.36 6.36 0 0 1 -3.5.8 4.8 4.8 0 0 1 -2.69-.63 2 2 0 0 1 -.93-1.78 1.92 1.92 0 0 1 .5-1.34 2.74 2.74 0 0 1 1.41-.75 1.4 1.4 0 0 1 -.6-.51 1.25 1.25 0 0 1 -.24-.73 1.28 1.28 0 0 1 .27-.82 3.26 3.26 0 0 1 .82-.66 2.36 2.36 0 0 1 -1.09-.94 2.79 2.79 0 0 1 -.42-1.53 2.74 2.74 0 0 1 .88-2.18 3.72 3.72 0 0 1 2.53-.77 5.14 5.14 0 0 1 .77 0 5.91 5.91 0 0 1 .61.1zm-6.79 10a1 1 0 0 0 .53.91 3 3 0 0 0 1.51.32 4.49 4.49 0 0 0 2.23-.43 1.3 1.3 0 0 0 .74-1.14.86.86 0 0 0 -.41-.8 3.16 3.16 0 0 0 -1.49-.24h-1.39a2 2 0 0 0 -1.26.37 1.22 1.22 0 0 0 -.46 1zm.79-7.19a1.73 1.73 0 0 0 .42 1.25 1.56 1.56 0 0 0 1.2.44q1.59 0 1.59-1.71a1.91 1.91 0 0 0 -.4-1.3 1.5 1.5 0 0 0 -1.19-.45 1.54 1.54 0 0 0 -1.21.45 1.91 1.91 0 0 0 -.41 1.31z"/><path d="m326.3 241.6a2.26 2.26 0 0 1 -.92 1.94 4.44 4.44 0 0 1 -2.64.68 6.27 6.27 0 0 1 -2.78-.52v-1.59a6.83 6.83 0 0 0 2.84.7c1.13 0 1.7-.34 1.7-1a.85.85 0 0 0 -.19-.55 2.48 2.48 0 0 0 -.62-.45 10.52 10.52 0 0 0 -1.19-.53 5.47 5.47 0 0 1 -2-1.16 2.09 2.09 0 0 1 -.53-1.5 2 2 0 0 1 .89-1.72 4.26 4.26 0 0 1 2.44-.61 6.93 6.93 0 0 1 2.88.61l-.59 1.39a6.38 6.38 0 0 0 -2.36-.58c-1 0-1.45.27-1.45.83a.82.82 0 0 0 .38.68 8.05 8.05 0 0 0 1.65.78 7.87 7.87 0 0 1 1.56.75 2.11 2.11 0 0 1 .95 1.87z"/><path d="m327.31 235.42h2l1.75 4.9a9.29 9.29 0 0 1 .54 2h.06a6.53 6.53 0 0 1 .26-1q.18-.62 2-5.83h2l-3.69 9.79q-1 2.7-3.36 2.7a5.23 5.23 0 0 1 -1.19-.14v-1.45a4.51 4.51 0 0 0 .95.09 1.92 1.92 0 0 0 1.86-1.53l.33-.82z"/><path d="m343.12 241.6a2.24 2.24 0 0 1 -.93 1.94 4.4 4.4 0 0 1 -2.64.68 6.22 6.22 0 0 1 -2.77-.52v-1.59a6.76 6.76 0 0 0 2.84.7c1.13 0 1.69-.34 1.69-1a.8.8 0 0 0 -.19-.55 2.4 2.4 0 0 0 -.61-.45 10.81 10.81 0 0 0 -1.2-.53 5.56 5.56 0 0 1 -2-1.16 2.13 2.13 0 0 1 -.53-1.5 2 2 0 0 1 .9-1.72 4.22 4.22 0 0 1 2.43-.61 6.86 6.86 0 0 1 2.88.61l-.59 1.39a6.34 6.34 0 0 0 -2.35-.58c-1 0-1.45.27-1.45.83a.81.81 0 0 0 .37.68 8.52 8.52 0 0 0 1.66.78 7.73 7.73 0 0 1 1.55.75 2.14 2.14 0 0 1 1 1.87z"/><path d="m348.53 242.73a4.41 4.41 0 0 0 1.34-.21v1.39a3.54 3.54 0 0 1 -.78.22 5.39 5.39 0 0 1 -1 .09c-1.74 0-2.61-.92-2.61-2.75v-4.66h-1.18v-.81l1.27-.67.63-1.83h1.13v1.92h2.46v1.39h-2.46v4.63a1.3 1.3 0 0 0 .33 1 1.2 1.2 0 0 0 .87.29z"/><path d="m355.25 244.22a4.13 4.13 0 0 1 -3.15-1.22 4.44 4.44 0 0 1 -1.14-3.23 4.89 4.89 0 0 1 1.05-3.33 3.65 3.65 0 0 1 2.9-1.21 3.56 3.56 0 0 1 2.71 1 4 4 0 0 1 1 2.85v1h-5.76a2.83 2.83 0 0 0 .68 1.93 2.37 2.37 0 0 0 1.8.68 6.47 6.47 0 0 0 1.43-.15 6.8 6.8 0 0 0 1.42-.48v1.49a5.46 5.46 0 0 1 -1.36.46 9.13 9.13 0 0 1 -1.58.21zm-.34-7.56a1.84 1.84 0 0 0 -1.4.55 2.67 2.67 0 0 0 -.63 1.62h3.92a2.4 2.4 0 0 0 -.51-1.62 1.76 1.76 0 0 0 -1.38-.55z"/><path d="m368 244.06h-1.84v-5.33a2.42 2.42 0 0 0 -.38-1.48 1.39 1.39 0 0 0 -1.17-.48 1.79 1.79 0 0 0 -1.56.69 4.07 4.07 0 0 0 -.49 2.3v4.3h-1.84v-8.64h1.44l.26 1.14h.09a2.42 2.42 0 0 1 1-1 3.44 3.44 0 0 1 1.51-.33 2.63 2.63 0 0 1 2.64 1.36h.12a2.67 2.67 0 0 1 1.08-1 3.42 3.42 0 0 1 1.59-.36 2.9 2.9 0 0 1 2.26.78 3.45 3.45 0 0 1 .71 2.38v5.63h-1.84v-5.33a2.42 2.42 0 0 0 -.38-1.48 1.39 1.39 0 0 0 -1.17-.48 1.83 1.83 0 0 0 -1.57.66 3.46 3.46 0 0 0 -.5 2z"/><path d="m381.78 241.6a2.26 2.26 0 0 1 -.92 1.94 4.4 4.4 0 0 1 -2.64.68 6.19 6.19 0 0 1 -2.77-.52v-1.59a6.76 6.76 0 0 0 2.83.7c1.13 0 1.7-.34 1.7-1a.8.8 0 0 0 -.19-.55 2.3 2.3 0 0 0 -.62-.45 9.76 9.76 0 0 0 -1.19-.53 5.47 5.47 0 0 1 -2-1.16 2.13 2.13 0 0 1 -.53-1.5 2 2 0 0 1 .9-1.72 4.2 4.2 0 0 1 2.43-.61 6.86 6.86 0 0 1 2.88.61l-.59 1.39a6.34 6.34 0 0 0 -2.35-.58c-1 0-1.46.27-1.46.83a.82.82 0 0 0 .38.68 8.23 8.23 0 0 0 1.66.78 7.73 7.73 0 0 1 1.55.75 2.11 2.11 0 0 1 .95 1.87z"/><path d="m603.54 213.08a3.09 3.09 0 0 0 -2.54 1.14 6 6 0 0 0 0 6.33 3.14 3.14 0 0 0 2.57 1.08 6.46 6.46 0 0 0 1.4-.15 14.22 14.22 0 0 0 1.42-.37v1.6a8.56 8.56 0 0 1 -3.05.51 4.87 4.87 0 0 1 -3.85-1.52 6.33 6.33 0 0 1 -1.35-4.35 7 7 0 0 1 .66-3.12 4.6 4.6 0 0 1 1.88-2 5.67 5.67 0 0 1 2.9-.71 7.2 7.2 0 0 1 3.24.73l-.68 1.56a7.74 7.74 0 0 0 -1.22-.48 4.33 4.33 0 0 0 -1.38-.25z"/><path d="m610.39 223.06h-1.84v-12.15h1.84z"/><path d="m620.63 218.73a4.72 4.72 0 0 1 -1.09 3.3 3.89 3.89 0 0 1 -3 1.19 4.06 4.06 0 0 1 -2.14-.55 3.58 3.58 0 0 1 -1.4-1.57 5.23 5.23 0 0 1 -.5-2.37 4.71 4.71 0 0 1 1.07-3.28 3.91 3.91 0 0 1 3-1.18 3.82 3.82 0 0 1 3 1.2 4.68 4.68 0 0 1 1.06 3.26zm-6.29 0c0 2 .73 3 2.21 3s2.19-1 2.19-3-.74-3-2.21-3a1.86 1.86 0 0 0 -1.67.76 3.87 3.87 0 0 0 -.52 2.24z"/><path d="m628.78 223.06-.26-1.13h-.09a2.67 2.67 0 0 1 -1.09.95 3.78 3.78 0 0 1 -1.62.34 3.18 3.18 0 0 1 -2.34-.78 3.26 3.26 0 0 1 -.77-2.37v-5.65h1.85v5.33a2.26 2.26 0 0 0 .41 1.49 1.54 1.54 0 0 0 1.27.49 2 2 0 0 0 1.7-.69 3.81 3.81 0 0 0 .54-2.31v-4.31h1.84v8.64z"/><path d="m635.75 223.22a3 3 0 0 1 -2.53-1.17 6.47 6.47 0 0 1 0-6.6 3 3 0 0 1 2.55-1.18 3 3 0 0 1 2.59 1.25h.09a12.6 12.6 0 0 1 -.13-1.46v-3.15h1.85v12.15h-1.44l-.32-1.13h-.09a2.93 2.93 0 0 1 -2.57 1.29zm.49-1.49a2 2 0 0 0 1.65-.63 3.41 3.41 0 0 0 .53-2.07v-.26a3.93 3.93 0 0 0 -.53-2.32 2 2 0 0 0 -1.67-.68 1.7 1.7 0 0 0 -1.49.78 5.07 5.07 0 0 0 0 4.43 1.73 1.73 0 0 0 1.51.75z"/><path d="m642.35 219.56v-1.56h4v1.57z"/><path d="m656.15 223.06h-1.85v-5.31a2.31 2.31 0 0 0 -.4-1.49 1.55 1.55 0 0 0 -1.28-.49 2 2 0 0 0 -1.7.69 3.81 3.81 0 0 0 -.54 2.31v4.29h-1.84v-12.15h1.84v3.09a15 15 0 0 1 -.09 1.59h.11a2.53 2.53 0 0 1 1.05-1 3.32 3.32 0 0 1 1.56-.34q3.13 0 3.14 3.16z"/><path d="m666.31 218.73a4.72 4.72 0 0 1 -1.08 3.3 3.92 3.92 0 0 1 -3 1.19 4.11 4.11 0 0 1 -2.14-.55 3.64 3.64 0 0 1 -1.43-1.57 5.37 5.37 0 0 1 -.5-2.37 4.67 4.67 0 0 1 1.08-3.28 3.9 3.9 0 0 1 3-1.18 3.82 3.82 0 0 1 3 1.2 4.67 4.67 0 0 1 1.07 3.26zm-6.29 0c0 2 .74 3 2.21 3s2.19-1 2.19-3-.73-3-2.2-3a1.89 1.89 0 0 0 -1.68.76 4 4 0 0 0 -.54 2.24z"/><path d="m674.18 220.6a2.26 2.26 0 0 1 -.92 1.94 4.4 4.4 0 0 1 -2.64.68 6.19 6.19 0 0 1 -2.77-.52v-1.59a6.76 6.76 0 0 0 2.83.7c1.13 0 1.7-.34 1.7-1a.8.8 0 0 0 -.19-.55 2.3 2.3 0 0 0 -.62-.45 9.76 9.76 0 0 0 -1.19-.53 5.47 5.47 0 0 1 -2-1.16 2.13 2.13 0 0 1 -.53-1.5 2 2 0 0 1 .9-1.72 4.2 4.2 0 0 1 2.43-.61 6.89 6.89 0 0 1 2.88.61l-.59 1.39a6.34 6.34 0 0 0 -2.35-.58c-1 0-1.46.27-1.46.83a.82.82 0 0 0 .38.68 8.65 8.65 0 0 0 1.65.78 7.6 7.6 0 0 1 1.56.75 2.11 2.11 0 0 1 .95 1.87z"/><path d="m679.6 221.73a4.46 4.46 0 0 0 1.34-.21v1.39a3.54 3.54 0 0 1 -.78.22 5.47 5.47 0 0 1 -1 .09c-1.74 0-2.61-.92-2.61-2.75v-4.66h-1.18v-.81l1.27-.67.62-1.83h1.14v1.92h2.46v1.39h-2.46v4.63a1.3 1.3 0 0 0 .33 1 1.2 1.2 0 0 0 .87.29z"/><path d="m686.32 223.22a4.17 4.17 0 0 1 -3.16-1.18 4.47 4.47 0 0 1 -1.13-3.23 4.89 4.89 0 0 1 1.05-3.33 3.63 3.63 0 0 1 2.9-1.21 3.53 3.53 0 0 1 2.7 1 4 4 0 0 1 1 2.85v1h-5.76a2.78 2.78 0 0 0 .68 1.93 2.36 2.36 0 0 0 1.8.68 6.47 6.47 0 0 0 1.43-.15 6.8 6.8 0 0 0 1.42-.48v1.49a5.6 5.6 0 0 1 -1.36.46 9.22 9.22 0 0 1 -1.57.17zm-.34-7.56a1.84 1.84 0 0 0 -1.4.55 2.67 2.67 0 0 0 -.63 1.62h3.92a2.4 2.4 0 0 0 -.51-1.62 1.78 1.78 0 0 0 -1.36-.55z"/><path d="m694.73 223.22a3 3 0 0 1 -2.52-1.17 5.23 5.23 0 0 1 -.91-3.29 5.3 5.3 0 0 1 .92-3.31 3 3 0 0 1 2.54-1.18 3 3 0 0 1 2.59 1.25h.1a10.69 10.69 0 0 1 -.13-1.46v-3.15h1.84v12.15h-1.44l-.32-1.13h-.08a2.94 2.94 0 0 1 -2.59 1.29zm.49-1.49a2 2 0 0 0 1.65-.63 3.41 3.41 0 0 0 .53-2.07v-.26a3.93 3.93 0 0 0 -.53-2.32 2 2 0 0 0 -1.66-.68 1.7 1.7 0 0 0 -1.5.78 4.1 4.1 0 0 0 -.52 2.24 3.9 3.9 0 0 0 .51 2.19 1.71 1.71 0 0 0 1.52.75z"/><path d="m609 244.06-.36-1.2h-.07a3.43 3.43 0 0 1 -1.25 1.07 4 4 0 0 1 -1.63.29 2.75 2.75 0 0 1 -2-.69 2.58 2.58 0 0 1 -.71-1.94 2.29 2.29 0 0 1 1-2 5.73 5.73 0 0 1 3-.74l1.5-.05v-.46a1.76 1.76 0 0 0 -.39-1.24 1.6 1.6 0 0 0 -1.2-.41 4.12 4.12 0 0 0 -1.27.2 9.31 9.31 0 0 0 -1.18.46l-.59-1.31a6.26 6.26 0 0 1 1.54-.56 6.94 6.94 0 0 1 1.58-.19 3.79 3.79 0 0 1 2.49.71 2.83 2.83 0 0 1 .84 2.26v5.82zm-2.73-1.25a2.23 2.23 0 0 0 1.6-.56 2 2 0 0 0 .61-1.56v-.75h-1.11a3.88 3.88 0 0 0 -1.89.44 1.32 1.32 0 0 0 -.59 1.18 1.16 1.16 0 0 0 .35.9 1.48 1.48 0 0 0 .98.35z"/><path d="m617.1 244.22a3 3 0 0 1 -2.55-1.18h-.1c.07.73.1 1.17.1 1.33v3.54h-1.83v-12.49h1.48c0 .16.13.55.26 1.16h.09a2.88 2.88 0 0 1 2.58-1.31 3 3 0 0 1 2.52 1.17 6.45 6.45 0 0 1 0 6.59 3 3 0 0 1 -2.55 1.19zm-.44-7.45a1.9 1.9 0 0 0 -1.6.64 3.27 3.27 0 0 0 -.51 2v.28a4.05 4.05 0 0 0 .5 2.28 1.88 1.88 0 0 0 1.64.71 1.67 1.67 0 0 0 1.47-.78 4.07 4.07 0 0 0 .51-2.23 3.91 3.91 0 0 0 -.51-2.2 1.71 1.71 0 0 0 -1.5-.7z"/><path d="m627 244.22a3 3 0 0 1 -2.54-1.18h-.11c.07.73.11 1.17.11 1.33v3.54h-1.84v-12.49h1.49c0 .16.12.55.25 1.16h.1a2.86 2.86 0 0 1 2.58-1.31 3 3 0 0 1 2.52 1.17 6.42 6.42 0 0 1 0 6.59 3 3 0 0 1 -2.56 1.19zm-.44-7.45a1.91 1.91 0 0 0 -1.6.64 3.34 3.34 0 0 0 -.5 2v.28a4.05 4.05 0 0 0 .54 2.31 1.86 1.86 0 0 0 1.63.71 1.65 1.65 0 0 0 1.47-.78 4.06 4.06 0 0 0 .52-2.23 3.9 3.9 0 0 0 -.52-2.2 1.71 1.71 0 0 0 -1.51-.73z"/><path d="m634.43 244.06h-1.83v-12.15h1.83z"/><path d="m636.83 233.13a1 1 0 0 1 .27-.75 1 1 0 0 1 .77-.27 1 1 0 0 1 .76.27 1.16 1.16 0 0 1 0 1.49 1 1 0 0 1 -.76.27 1 1 0 0 1 -.77-.27 1 1 0 0 1 -.27-.74zm1.95 10.93h-1.84v-8.64h1.84z"/><path d="m644.8 244.22a3.76 3.76 0 0 1 -3-1.15 4.76 4.76 0 0 1 -1-3.28 4.81 4.81 0 0 1 1.07-3.35 4 4 0 0 1 3.08-1.17 5.91 5.91 0 0 1 2.46.5l-.55 1.48a5.63 5.63 0 0 0 -1.93-.45c-1.49 0-2.24 1-2.24 3a3.61 3.61 0 0 0 .56 2.19 2 2 0 0 0 1.64.73 4.79 4.79 0 0 0 2.32-.61v1.6a3.64 3.64 0 0 1 -1.05.41 6 6 0 0 1 -1.36.1z"/><path d="m654.7 244.06-.36-1.2h-.07a3.43 3.43 0 0 1 -1.25 1.07 4 4 0 0 1 -1.63.29 2.75 2.75 0 0 1 -2-.69 2.58 2.58 0 0 1 -.71-1.94 2.29 2.29 0 0 1 1-2 5.73 5.73 0 0 1 3-.74l1.5-.05v-.46a1.76 1.76 0 0 0 -.39-1.24 1.6 1.6 0 0 0 -1.2-.41 4.12 4.12 0 0 0 -1.27.2 9.31 9.31 0 0 0 -1.18.46l-.59-1.31a6.26 6.26 0 0 1 1.54-.56 6.94 6.94 0 0 1 1.58-.19 3.79 3.79 0 0 1 2.49.71 2.83 2.83 0 0 1 .84 2.26v5.82zm-2.7-1.25a2.22 2.22 0 0 0 1.6-.56 2 2 0 0 0 .61-1.56v-.75h-1.11a3.91 3.91 0 0 0 -1.89.44 1.32 1.32 0 0 0 -.59 1.18 1.16 1.16 0 0 0 .35.9 1.48 1.48 0 0 0 1.03.35z"/><path d="m661.7 242.73a4.52 4.52 0 0 0 1.35-.21v1.39a3.82 3.82 0 0 1 -.79.22 5.36 5.36 0 0 1 -1 .09c-1.74 0-2.61-.92-2.61-2.75v-4.66h-1.18v-.81l1.26-.67.63-1.83h1.13v1.92h2.51v1.39h-2.5v4.63a1.3 1.3 0 0 0 .33 1 1.2 1.2 0 0 0 .87.29z"/><path d="m664.57 233.13a1 1 0 0 1 .27-.75 1 1 0 0 1 .77-.27 1 1 0 0 1 .75.27 1.16 1.16 0 0 1 0 1.49 1 1 0 0 1 -.75.27 1 1 0 0 1 -.77-.27 1 1 0 0 1 -.27-.74zm1.94 10.93h-1.83v-8.64h1.83z"/><path d="m676.72 239.73a4.72 4.72 0 0 1 -1.09 3.3 3.89 3.89 0 0 1 -3 1.19 4.08 4.08 0 0 1 -2.14-.55 3.58 3.58 0 0 1 -1.49-1.57 5.23 5.23 0 0 1 -.5-2.37 4.67 4.67 0 0 1 1.08-3.28 3.87 3.87 0 0 1 3-1.18 3.82 3.82 0 0 1 3 1.2 4.68 4.68 0 0 1 1.14 3.26zm-6.29 0c0 2 .73 3 2.21 3s2.19-1 2.19-3-.74-3-2.21-3a1.86 1.86 0 0 0 -1.67.76 3.87 3.87 0 0 0 -.52 2.24z"/><path d="m686.36 244.06h-1.84v-5.31a2.37 2.37 0 0 0 -.4-1.49 1.56 1.56 0 0 0 -1.28-.49 2.06 2.06 0 0 0 -1.71.68 3.89 3.89 0 0 0 -.53 2.31v4.3h-1.84v-8.64h1.44l.25 1.14h.1a2.55 2.55 0 0 1 1.11-1 3.77 3.77 0 0 1 1.59-.33q3.11 0 3.11 3.16z"/><path d="m694.73 241.6a2.24 2.24 0 0 1 -.92 1.94 4.4 4.4 0 0 1 -2.64.68 6.22 6.22 0 0 1 -2.77-.52v-1.59a6.76 6.76 0 0 0 2.83.7c1.13 0 1.7-.34 1.7-1a.8.8 0 0 0 -.19-.55 2.3 2.3 0 0 0 -.62-.45 9.76 9.76 0 0 0 -1.19-.53 5.47 5.47 0 0 1 -2-1.16 2.13 2.13 0 0 1 -.53-1.5 2 2 0 0 1 .9-1.72 4.2 4.2 0 0 1 2.43-.61 6.86 6.86 0 0 1 2.88.61l-.59 1.39a6.34 6.34 0 0 0 -2.35-.58c-1 0-1.45.27-1.45.83a.81.81 0 0 0 .37.68 8.52 8.52 0 0 0 1.66.78 7.73 7.73 0 0 1 1.55.75 2.36 2.36 0 0 1 .72.8 2.25 2.25 0 0 1 .21 1.05z"/><path d="m470.83 217.24a5.69 5.69 0 0 1 -1.57 4.33 6.35 6.35 0 0 1 -4.52 1.49h-3.2v-11.42h3.53a5.83 5.83 0 0 1 4.24 1.47 5.5 5.5 0 0 1 1.52 4.13zm-2 .07q0-4.11-3.84-4.11h-1.61v8.29h1.33q4.16 0 4.15-4.18z"/><path d="m478.31 223.06-.37-1.2h-.06a3.53 3.53 0 0 1 -1.26 1.07 4 4 0 0 1 -1.63.29 2.73 2.73 0 0 1 -2-.69 2.55 2.55 0 0 1 -.72-1.94 2.29 2.29 0 0 1 1-2 5.77 5.77 0 0 1 3-.74l1.49-.05v-.46a1.76 1.76 0 0 0 -.39-1.24 1.57 1.57 0 0 0 -1.2-.41 4.16 4.16 0 0 0 -1.27.2 8.62 8.62 0 0 0 -1.17.46l-.6-1.31a6.41 6.41 0 0 1 1.54-.56 7 7 0 0 1 1.58-.19 3.79 3.79 0 0 1 2.49.71 2.83 2.83 0 0 1 .84 2.26v5.82zm-2.74-1.25a2.24 2.24 0 0 0 1.61-.56 2 2 0 0 0 .6-1.56v-.75h-1.11a3.83 3.83 0 0 0 -1.88.44 1.3 1.3 0 0 0 -.59 1.18 1.15 1.15 0 0 0 .34.9 1.49 1.49 0 0 0 1.03.35z"/><path d="m485.31 221.73a4.51 4.51 0 0 0 1.34-.21v1.39a3.54 3.54 0 0 1 -.78.22 5.47 5.47 0 0 1 -1 .09c-1.74 0-2.61-.92-2.61-2.75v-4.66h-1.18v-.81l1.27-.67.62-1.83h1.13v1.92h2.47v1.39h-2.47v4.63a1.27 1.27 0 0 0 .34 1 1.2 1.2 0 0 0 .87.29z"/><path d="m494 223.06-.36-1.2h-.07a3.43 3.43 0 0 1 -1.25 1.07 4 4 0 0 1 -1.63.29 2.75 2.75 0 0 1 -2-.69 2.58 2.58 0 0 1 -.71-1.94 2.29 2.29 0 0 1 1-2 5.73 5.73 0 0 1 3-.74l1.49-.05v-.46a1.75 1.75 0 0 0 -.38-1.24 1.6 1.6 0 0 0 -1.2-.41 4.12 4.12 0 0 0 -1.27.2 9.31 9.31 0 0 0 -1.18.46l-.59-1.31a6.26 6.26 0 0 1 1.54-.56 6.94 6.94 0 0 1 1.58-.19 3.79 3.79 0 0 1 2.49.71 2.86 2.86 0 0 1 .84 2.26v5.82zm-2.73-1.25a2.22 2.22 0 0 0 1.6-.56 2 2 0 0 0 .61-1.56v-.75h-1.11a3.91 3.91 0 0 0 -1.89.44 1.32 1.32 0 0 0 -.59 1.18 1.16 1.16 0 0 0 .35.9 1.48 1.48 0 0 0 .99.35z"/><path d="m502.14 214.27a3 3 0 0 1 2.52 1.17 6.41 6.41 0 0 1 0 6.6 3 3 0 0 1 -2.54 1.18 3 3 0 0 1 -2.54-1.18h-.13l-.34 1h-1.37v-12.13h1.84v2.89.95s0 .69 0 .81h.08a2.9 2.9 0 0 1 2.48-1.29zm-.47 1.5a1.85 1.85 0 0 0 -1.6.65 3.66 3.66 0 0 0 -.5 2.18v.13a4 4 0 0 0 .5 2.28 1.85 1.85 0 0 0 1.63.71 1.67 1.67 0 0 0 1.48-.77 4.18 4.18 0 0 0 .5-2.24q0-2.94-2.01-2.94z"/><path d="m513.07 223.06-.37-1.2h-.06a3.53 3.53 0 0 1 -1.26 1.07 4 4 0 0 1 -1.63.29 2.75 2.75 0 0 1 -2-.69 2.58 2.58 0 0 1 -.71-1.94 2.29 2.29 0 0 1 1-2 5.74 5.74 0 0 1 3-.74l1.49-.05v-.46a1.76 1.76 0 0 0 -.39-1.24 1.6 1.6 0 0 0 -1.2-.41 4.12 4.12 0 0 0 -1.27.2 8.62 8.62 0 0 0 -1.17.46l-.6-1.31a6.26 6.26 0 0 1 1.54-.56 6.94 6.94 0 0 1 1.58-.19 3.79 3.79 0 0 1 2.49.71 2.83 2.83 0 0 1 .84 2.26v5.82zm-2.74-1.25a2.26 2.26 0 0 0 1.61-.56 2 2 0 0 0 .6-1.56v-.75h-1.11a3.83 3.83 0 0 0 -1.88.44 1.3 1.3 0 0 0 -.59 1.18 1.15 1.15 0 0 0 .34.9 1.48 1.48 0 0 0 1.03.35z"/><path d="m522.74 220.6a2.24 2.24 0 0 1 -.92 1.94 4.4 4.4 0 0 1 -2.64.68 6.22 6.22 0 0 1 -2.77-.52v-1.59a6.76 6.76 0 0 0 2.83.7c1.13 0 1.7-.34 1.7-1a.8.8 0 0 0 -.19-.55 2.4 2.4 0 0 0 -.61-.45 10.81 10.81 0 0 0 -1.2-.53 5.56 5.56 0 0 1 -2-1.16 2.13 2.13 0 0 1 -.53-1.5 2 2 0 0 1 .9-1.72 4.22 4.22 0 0 1 2.43-.61 6.86 6.86 0 0 1 2.88.61l-.59 1.39a6.34 6.34 0 0 0 -2.35-.58c-1 0-1.45.27-1.45.83a.81.81 0 0 0 .37.68 8.52 8.52 0 0 0 1.66.78 7.73 7.73 0 0 1 1.55.75 2.11 2.11 0 0 1 1 1.87z"/><path d="m528.48 223.22a4.16 4.16 0 0 1 -3.15-1.18 4.44 4.44 0 0 1 -1.14-3.23 4.84 4.84 0 0 1 1.06-3.33 3.63 3.63 0 0 1 2.9-1.21 3.53 3.53 0 0 1 2.7 1 4 4 0 0 1 1 2.85v1h-5.76a2.88 2.88 0 0 0 .68 1.93 2.38 2.38 0 0 0 1.81.68 6.38 6.38 0 0 0 1.42-.15 6.61 6.61 0 0 0 1.42-.48v1.49a5.46 5.46 0 0 1 -1.36.46 9.13 9.13 0 0 1 -1.58.17zm-.33-7.56a1.86 1.86 0 0 0 -1.41.55 2.61 2.61 0 0 0 -.62 1.62h3.88a2.4 2.4 0 0 0 -.52-1.62 1.74 1.74 0 0 0 -1.33-.55z"/><path d="m445.79 244.06h-1.79v-5.33a2.43 2.43 0 0 0 -.37-1.48 1.4 1.4 0 0 0 -1.18-.48 1.78 1.78 0 0 0 -1.55.69 4 4 0 0 0 -.5 2.3v4.3h-1.84v-8.64h1.44l.26 1.14h.09a2.39 2.39 0 0 1 1.05-1 3.37 3.37 0 0 1 1.5-.33 2.62 2.62 0 0 1 2.64 1.36h.13a2.59 2.59 0 0 1 1.07-1 3.46 3.46 0 0 1 1.6-.36 2.9 2.9 0 0 1 2.25.78 3.45 3.45 0 0 1 .71 2.38v5.63h-1.84v-5.33a2.42 2.42 0 0 0 -.38-1.48 1.39 1.39 0 0 0 -1.17-.48 1.83 1.83 0 0 0 -1.57.66 3.46 3.46 0 0 0 -.5 2z"/><path d="m459.08 244.06-.37-1.2h-.06a3.53 3.53 0 0 1 -1.26 1.07 4 4 0 0 1 -1.62.29 2.74 2.74 0 0 1 -2-.69 2.55 2.55 0 0 1 -.72-1.94 2.28 2.28 0 0 1 1-2 5.7 5.7 0 0 1 3-.74l1.49-.05v-.46a1.76 1.76 0 0 0 -.39-1.24 1.56 1.56 0 0 0 -1.19-.41 4.18 4.18 0 0 0 -1.28.2 9.17 9.17 0 0 0 -1.17.46l-.51-1.35a6.11 6.11 0 0 1 1.54-.56 6.86 6.86 0 0 1 1.57-.19 3.79 3.79 0 0 1 2.49.71 2.83 2.83 0 0 1 .84 2.26v5.82zm-2.74-1.25a2.24 2.24 0 0 0 1.61-.56 2 2 0 0 0 .61-1.56v-.75h-1.11a3.85 3.85 0 0 0 -1.89.44 1.32 1.32 0 0 0 -.59 1.18 1.15 1.15 0 0 0 .34.9 1.49 1.49 0 0 0 1.03.35z"/><path d="m470.45 244.06h-1.85v-5.31a2.31 2.31 0 0 0 -.4-1.49 1.55 1.55 0 0 0 -1.28-.49 2.05 2.05 0 0 0 -1.7.68 3.81 3.81 0 0 0 -.54 2.31v4.3h-1.84v-8.64h1.44l.26 1.14h.09a2.55 2.55 0 0 1 1.11-1 3.78 3.78 0 0 1 1.6-.33q3.11 0 3.11 3.16z"/><path d="m478.28 244.06-.37-1.2h-.06a3.45 3.45 0 0 1 -1.26 1.07 4 4 0 0 1 -1.62.29 2.75 2.75 0 0 1 -2-.69 2.55 2.55 0 0 1 -.71-1.94 2.29 2.29 0 0 1 1-2 5.73 5.73 0 0 1 3-.74l1.49-.05v-.46a1.8 1.8 0 0 0 -.38-1.24 1.6 1.6 0 0 0 -1.2-.41 4.18 4.18 0 0 0 -1.28.2 9.79 9.79 0 0 0 -1.17.46l-.59-1.31a6.26 6.26 0 0 1 1.54-.56 6.87 6.87 0 0 1 1.58-.19 3.78 3.78 0 0 1 2.48.71 2.83 2.83 0 0 1 .84 2.26v5.82zm-2.73-1.25a2.23 2.23 0 0 0 1.6-.56 2 2 0 0 0 .61-1.56v-.75h-1.11a3.88 3.88 0 0 0 -1.89.44 1.32 1.32 0 0 0 -.59 1.18 1.16 1.16 0 0 0 .35.9 1.46 1.46 0 0 0 1.03.35z"/><path d="m489.38 235.42v1l-1.47.27a2.39 2.39 0 0 1 .33.68 2.77 2.77 0 0 1 -.79 2.94 3.84 3.84 0 0 1 -2.53.77 3.42 3.42 0 0 1 -.75-.07 1.05 1.05 0 0 0 -.6.86.48.48 0 0 0 .28.45 2.35 2.35 0 0 0 1 .15h1.51a3.34 3.34 0 0 1 2.17.61 2.14 2.14 0 0 1 .74 1.75 2.55 2.55 0 0 1 -1.21 2.27 6.38 6.38 0 0 1 -3.5.8 4.81 4.81 0 0 1 -2.7-.63 2 2 0 0 1 -.93-1.78 1.88 1.88 0 0 1 .51-1.34 2.66 2.66 0 0 1 1.41-.75 1.37 1.37 0 0 1 -.61-.51 1.24 1.24 0 0 1 -.23-.73 1.28 1.28 0 0 1 .27-.82 3.19 3.19 0 0 1 .81-.66 2.41 2.41 0 0 1 -1.09-.94 2.79 2.79 0 0 1 -.42-1.53 2.75 2.75 0 0 1 .89-2.18 3.7 3.7 0 0 1 2.53-.77 5.23 5.23 0 0 1 .77 0 5.63 5.63 0 0 1 .6.1zm-6.78 10a1 1 0 0 0 .53.91 3 3 0 0 0 1.5.32 4.53 4.53 0 0 0 2.24-.43 1.29 1.29 0 0 0 .73-1.14.86.86 0 0 0 -.4-.8 3.23 3.23 0 0 0 -1.5-.24h-1.39a1.94 1.94 0 0 0 -1.25.37 1.22 1.22 0 0 0 -.46 1zm.78-7.19a1.73 1.73 0 0 0 .42 1.25 1.59 1.59 0 0 0 1.2.44c1.06 0 1.6-.57 1.6-1.71a2 2 0 0 0 -.4-1.3 1.5 1.5 0 0 0 -1.2-.45 1.57 1.57 0 0 0 -1.21.45 1.91 1.91 0 0 0 -.41 1.31z"/><path d="m494.55 244.22a4.16 4.16 0 0 1 -3.15-1.22 4.44 4.44 0 0 1 -1.14-3.23 4.84 4.84 0 0 1 1.06-3.33 3.61 3.61 0 0 1 2.89-1.21 3.56 3.56 0 0 1 2.71 1 4 4 0 0 1 1 2.85v1h-5.76a2.83 2.83 0 0 0 .68 1.93 2.38 2.38 0 0 0 1.81.68 6.38 6.38 0 0 0 1.42-.15 6.8 6.8 0 0 0 1.42-.48v1.49a5.46 5.46 0 0 1 -1.36.46 9.13 9.13 0 0 1 -1.58.21zm-.34-7.56a1.84 1.84 0 0 0 -1.4.55 2.67 2.67 0 0 0 -.63 1.62h3.92a2.4 2.4 0 0 0 -.51-1.62 1.76 1.76 0 0 0 -1.38-.55z"/><path d="m507.26 244.06h-1.84v-5.33a2.42 2.42 0 0 0 -.38-1.48 1.39 1.39 0 0 0 -1.17-.48 1.79 1.79 0 0 0 -1.56.69 4.07 4.07 0 0 0 -.49 2.3v4.3h-1.82v-8.64h1.44l.26 1.14h.09a2.42 2.42 0 0 1 1-1 3.44 3.44 0 0 1 1.51-.33 2.62 2.62 0 0 1 2.64 1.36h.12a2.67 2.67 0 0 1 1.08-1 3.43 3.43 0 0 1 1.6-.36 2.9 2.9 0 0 1 2.25.78 3.45 3.45 0 0 1 .71 2.38v5.63h-1.84v-5.33a2.42 2.42 0 0 0 -.38-1.48 1.39 1.39 0 0 0 -1.17-.48 1.83 1.83 0 0 0 -1.57.66 3.46 3.46 0 0 0 -.5 2z"/><path d="m519 244.22a4.16 4.16 0 0 1 -3.15-1.18 4.44 4.44 0 0 1 -1.14-3.23 4.84 4.84 0 0 1 1.06-3.33 3.61 3.61 0 0 1 2.89-1.21 3.55 3.55 0 0 1 2.71 1 4 4 0 0 1 1 2.85v1h-5.76a2.83 2.83 0 0 0 .68 1.93 2.38 2.38 0 0 0 1.81.68 6.38 6.38 0 0 0 1.42-.15 6.8 6.8 0 0 0 1.42-.48v1.49a5.46 5.46 0 0 1 -1.36.46 9.13 9.13 0 0 1 -1.58.17zm-.34-7.56a1.84 1.84 0 0 0 -1.4.55 2.67 2.67 0 0 0 -.63 1.62h3.92a2.4 2.4 0 0 0 -.51-1.62 1.75 1.75 0 0 0 -1.39-.55z"/><path d="m532 244.06h-1.84v-5.31a2.31 2.31 0 0 0 -.4-1.49 1.56 1.56 0 0 0 -1.28-.49 2 2 0 0 0 -1.7.68 3.81 3.81 0 0 0 -.54 2.31v4.3h-1.84v-8.64h1.44l.26 1.14h.09a2.55 2.55 0 0 1 1.11-1 3.77 3.77 0 0 1 1.59-.33c2.08 0 3.11 1 3.11 3.16z"/><path d="m537.69 242.73a4.46 4.46 0 0 0 1.34-.21v1.39a3.54 3.54 0 0 1 -.78.22 5.47 5.47 0 0 1 -1 .09c-1.74 0-2.61-.92-2.61-2.75v-4.66h-1.18v-.81l1.27-.67.62-1.83h1.14v1.92h2.51v1.39h-2.46v4.63a1.3 1.3 0 0 0 .33 1 1.2 1.2 0 0 0 .82.29z"/><path d="m544.35 241a3.23 3.23 0 0 1 .5-1.79 5.43 5.43 0 0 1 1.81-1.51 6.12 6.12 0 0 1 -1-1.46 3 3 0 0 1 -.27-1.24 2.31 2.31 0 0 1 .84-1.88 3.58 3.58 0 0 1 2.28-.68 3.22 3.22 0 0 1 2.17.67 2.21 2.21 0 0 1 .79 1.8 2.62 2.62 0 0 1 -.53 1.61 5.66 5.66 0 0 1 -1.76 1.46l2.71 2.61a7.13 7.13 0 0 0 1-2.46h1.89a8.57 8.57 0 0 1 -1.75 3.62l2.35 2.27h-2.36l-1.17-1.13a5.56 5.56 0 0 1 -3.69 1.29 4.26 4.26 0 0 1 -2.82-.85 2.86 2.86 0 0 1 -.99-2.33zm3.94 1.6a3.78 3.78 0 0 0 2.45-.83l-3-2.95a3.91 3.91 0 0 0 -1.14 1 1.82 1.82 0 0 0 -.31 1 1.58 1.58 0 0 0 .54 1.25 2.14 2.14 0 0 0 1.46.57zm-1.16-7.54a1.72 1.72 0 0 0 .26.93 5.44 5.44 0 0 0 .73.93 4.44 4.44 0 0 0 1.24-.93 1.54 1.54 0 0 0 .35-1 1.05 1.05 0 0 0 -.34-.82 1.3 1.3 0 0 0 -.9-.3 1.44 1.44 0 0 0 -1 .31 1.1 1.1 0 0 0 -.34.92z"/><path d="m428.77 265.22a3 3 0 0 1 -2.52-1.17 5.23 5.23 0 0 1 -.91-3.29 5.3 5.3 0 0 1 .92-3.31 3.33 3.33 0 0 1 5.14.07h.09a10.69 10.69 0 0 1 -.13-1.46v-3.15h1.84v12.15h-1.44l-.32-1.13h-.08a2.94 2.94 0 0 1 -2.59 1.29zm.49-1.49a2 2 0 0 0 1.65-.63 3.34 3.34 0 0 0 .53-2.07v-.26a3.85 3.85 0 0 0 -.53-2.32 2 2 0 0 0 -1.66-.68 1.67 1.67 0 0 0 -1.49.78 4 4 0 0 0 -.53 2.24 3.9 3.9 0 0 0 .51 2.19 1.72 1.72 0 0 0 1.52.75z"/><path d="m439.54 265.22a4.15 4.15 0 0 1 -3.15-1.18 4.44 4.44 0 0 1 -1.14-3.23 4.89 4.89 0 0 1 1.05-3.33 3.65 3.65 0 0 1 2.9-1.21 3.56 3.56 0 0 1 2.71 1 4 4 0 0 1 1 2.85v1h-5.76a2.83 2.83 0 0 0 .68 1.93 2.37 2.37 0 0 0 1.8.68 6.47 6.47 0 0 0 1.43-.15 6.8 6.8 0 0 0 1.42-.48v1.49a5.46 5.46 0 0 1 -1.36.46 9.13 9.13 0 0 1 -1.58.17zm-.34-7.56a1.84 1.84 0 0 0 -1.4.55 2.67 2.67 0 0 0 -.63 1.62h3.92a2.4 2.4 0 0 0 -.51-1.62 1.76 1.76 0 0 0 -1.38-.55z"/><path d="m446.87 265.06-3.28-8.64h1.94l1.76 5a9.75 9.75 0 0 1 .54 2h.07a13.71 13.71 0 0 1 .54-2l1.76-5h1.95l-3.29 8.64z"/><path d="m457.07 265.22a4.16 4.16 0 0 1 -3.15-1.18 4.44 4.44 0 0 1 -1.14-3.23 4.84 4.84 0 0 1 1.06-3.33 3.63 3.63 0 0 1 2.9-1.21 3.53 3.53 0 0 1 2.7 1 4 4 0 0 1 1 2.85v1h-5.76a2.88 2.88 0 0 0 .68 1.93 2.38 2.38 0 0 0 1.81.68 6.38 6.38 0 0 0 1.42-.15 6.61 6.61 0 0 0 1.42-.48v1.49a5.46 5.46 0 0 1 -1.36.46 9.13 9.13 0 0 1 -1.58.17zm-.33-7.56a1.86 1.86 0 0 0 -1.41.55 2.67 2.67 0 0 0 -.63 1.62h3.93a2.4 2.4 0 0 0 -.52-1.62 1.74 1.74 0 0 0 -1.37-.55z"/><path d="m464.35 265.06h-1.83v-12.15h1.83z"/><path d="m474.59 260.73a4.72 4.72 0 0 1 -1.08 3.3 3.91 3.91 0 0 1 -3 1.19 4.11 4.11 0 0 1 -2.14-.55 3.64 3.64 0 0 1 -1.43-1.57 5.37 5.37 0 0 1 -.5-2.37 4.67 4.67 0 0 1 1.08-3.28 3.9 3.9 0 0 1 3-1.18 3.82 3.82 0 0 1 3 1.2 4.67 4.67 0 0 1 1.07 3.26zm-6.29 0c0 2 .74 3 2.21 3s2.19-1 2.19-3-.73-3-2.2-3a1.89 1.89 0 0 0 -1.68.76 4 4 0 0 0 -.52 2.24z"/><path d="m481 265.22a3 3 0 0 1 -2.55-1.18h-.11c.07.73.11 1.17.11 1.33v3.54h-1.84v-12.49h1.49c0 .16.13.55.26 1.16h.09a2.86 2.86 0 0 1 2.58-1.31 3 3 0 0 1 2.52 1.17 6.42 6.42 0 0 1 0 6.59 3 3 0 0 1 -2.55 1.19zm-.45-7.45a1.91 1.91 0 0 0 -1.6.64 3.34 3.34 0 0 0 -.5 2v.28a4.05 4.05 0 0 0 .55 2.31 1.86 1.86 0 0 0 1.63.71 1.65 1.65 0 0 0 1.47-.78 4 4 0 0 0 .52-2.23 3.91 3.91 0 0 0 -.51-2.2 1.73 1.73 0 0 0 -1.54-.73z"/><path d="m493.85 265.06h-1.85v-5.33a2.42 2.42 0 0 0 -.38-1.48 1.39 1.39 0 0 0 -1.17-.48 1.79 1.79 0 0 0 -1.56.69 4.06 4.06 0 0 0 -.5 2.3v4.3h-1.83v-8.64h1.44l.25 1.14h.1a2.37 2.37 0 0 1 1-1 3.43 3.43 0 0 1 1.5-.33 2.62 2.62 0 0 1 2.64 1.36h.13a2.55 2.55 0 0 1 1.08-1 3.39 3.39 0 0 1 1.59-.36 2.93 2.93 0 0 1 2.26.78 3.45 3.45 0 0 1 .7 2.38v5.63h-1.83v-5.33a2.42 2.42 0 0 0 -.38-1.48 1.43 1.43 0 0 0 -1.18-.48 1.82 1.82 0 0 0 -1.56.66 3.39 3.39 0 0 0 -.5 2.05z"/><path d="m505.58 265.22a4.17 4.17 0 0 1 -3.16-1.18 4.47 4.47 0 0 1 -1.13-3.23 4.89 4.89 0 0 1 1-3.33 3.63 3.63 0 0 1 2.9-1.21 3.53 3.53 0 0 1 2.7 1 4 4 0 0 1 1 2.85v1h-5.76a2.78 2.78 0 0 0 .68 1.93 2.36 2.36 0 0 0 1.8.68 6.47 6.47 0 0 0 1.43-.15 6.8 6.8 0 0 0 1.42-.48v1.49a5.6 5.6 0 0 1 -1.36.46 9.22 9.22 0 0 1 -1.52.17zm-.34-7.56a1.84 1.84 0 0 0 -1.4.55 2.67 2.67 0 0 0 -.63 1.62h3.92a2.4 2.4 0 0 0 -.51-1.62 1.78 1.78 0 0 0 -1.38-.55z"/><path d="m518.61 265.06h-1.84v-5.31a2.3 2.3 0 0 0 -.41-1.49 1.53 1.53 0 0 0 -1.27-.49 2.06 2.06 0 0 0 -1.71.68 3.81 3.81 0 0 0 -.54 2.31v4.3h-1.84v-8.64h1.44l.25 1.14h.1a2.55 2.55 0 0 1 1.11-1 3.77 3.77 0 0 1 1.59-.33q3.11 0 3.11 3.16z"/><path d="m524.28 263.73a4.51 4.51 0 0 0 1.34-.21v1.39a3.65 3.65 0 0 1 -.79.22 5.36 5.36 0 0 1 -1 .09c-1.74 0-2.61-.92-2.61-2.75v-4.66h-1.18v-.81l1.26-.67.63-1.83h1.13v1.92h2.46v1.39h-2.46v4.63a1.3 1.3 0 0 0 .33 1 1.23 1.23 0 0 0 .89.29z"/><path d="m534.72 263.73a4.41 4.41 0 0 0 1.34-.21v1.39a3.54 3.54 0 0 1 -.78.22 5.39 5.39 0 0 1 -1 .09c-1.74 0-2.61-.92-2.61-2.75v-4.66h-1.18v-.81l1.27-.67.62-1.83h1.14v1.92h2.48v1.39h-2.46v4.63a1.3 1.3 0 0 0 .33 1 1.2 1.2 0 0 0 .85.29z"/><path d="m545.32 260.73a4.68 4.68 0 0 1 -1.09 3.3 3.89 3.89 0 0 1 -3 1.19 4.08 4.08 0 0 1 -2.14-.55 3.58 3.58 0 0 1 -1.43-1.57 5.37 5.37 0 0 1 -.5-2.37 4.67 4.67 0 0 1 1.08-3.28 3.9 3.9 0 0 1 3-1.18 3.82 3.82 0 0 1 3 1.2 4.67 4.67 0 0 1 1.08 3.26zm-6.29 0c0 2 .74 3 2.21 3s2.19-1 2.19-3-.73-3-2.2-3a1.89 1.89 0 0 0 -1.68.76 3.87 3.87 0 0 0 -.55 2.24z"/><path d="m555.07 260.73a4.72 4.72 0 0 1 -1.07 3.27 3.91 3.91 0 0 1 -3 1.19 4.11 4.11 0 0 1 -2.14-.55 3.64 3.64 0 0 1 -1.43-1.57 5.37 5.37 0 0 1 -.5-2.37 4.67 4.67 0 0 1 1.08-3.28 3.9 3.9 0 0 1 3-1.18 3.82 3.82 0 0 1 3 1.2 4.67 4.67 0 0 1 1.06 3.29zm-6.29 0c0 2 .74 3 2.21 3s2.19-1 2.19-3-.73-3-2.2-3a1.89 1.89 0 0 0 -1.68.76 4 4 0 0 0 -.52 2.24z"/><path d="m559 265.06h-1.84v-12.15h1.84z"/><path d="m567.43 262.6a2.26 2.26 0 0 1 -.92 1.94 4.44 4.44 0 0 1 -2.64.68 6.27 6.27 0 0 1 -2.78-.52v-1.59a6.83 6.83 0 0 0 2.84.7c1.13 0 1.7-.34 1.7-1a.85.85 0 0 0 -.19-.55 2.48 2.48 0 0 0 -.62-.45 10.52 10.52 0 0 0 -1.19-.53 5.47 5.47 0 0 1 -2-1.16 2.09 2.09 0 0 1 -.53-1.5 2 2 0 0 1 .89-1.72 4.26 4.26 0 0 1 2.44-.61 6.93 6.93 0 0 1 2.88.61l-.59 1.39a6.38 6.38 0 0 0 -2.36-.58c-1 0-1.45.27-1.45.83a.82.82 0 0 0 .38.68 8.05 8.05 0 0 0 1.65.78 7.87 7.87 0 0 1 1.56.75 2.11 2.11 0 0 1 .95 1.87z"/></g><g fill="none" stroke="#707070" stroke-miterlimit="10" stroke-width="2"><path d="m97.2 62.88h-58.88v27.41"/><path d="m247.32 90.29v-27.41h-60"/><path d="m308.2 34.88h-269.88v57"/><path d="m540.32 91.88v-57h-142"/><path d="m563.2 8.88h-524.88v83"/><path d="m681.32 91.88v-83h-28.12"/></g><g fill="#707070"><path d="m593.76 12.48a4.37 4.37 0 0 1 -1.65 3.61 7.17 7.17 0 0 1 -4.59 1.32 10.78 10.78 0 0 1 -4.79-1v-3.35a19.68 19.68 0 0 0 2.9 1.07 8.46 8.46 0 0 0 2.17.31 3.08 3.08 0 0 0 1.81-.45 1.53 1.53 0 0 0 .63-1.34 1.44 1.44 0 0 0 -.28-.88 3 3 0 0 0 -.81-.75 20 20 0 0 0 -2.15-1.14 11 11 0 0 1 -2.32-1.4 5.22 5.22 0 0 1 -1.24-1.57 4.4 4.4 0 0 1 -.46-2.08 4.4 4.4 0 0 1 1.52-3.53 6.36 6.36 0 0 1 4.16-1.3 9.86 9.86 0 0 1 2.51.31 17.6 17.6 0 0 1 2.51.88l-1.16 2.81a17.51 17.51 0 0 0 -2.24-.78 7.54 7.54 0 0 0 -1.74-.22 2.28 2.28 0 0 0 -1.56.48 1.57 1.57 0 0 0 -.55 1.24 1.57 1.57 0 0 0 .22.82 2.42 2.42 0 0 0 .7.69 21.7 21.7 0 0 0 2.28 1.18 9.14 9.14 0 0 1 3.25 2.28 4.45 4.45 0 0 1 .88 2.79z"/><path d="m604.91 17.18-.68-1.76h-.09a5.21 5.21 0 0 1 -1.83 1.58 5.92 5.92 0 0 1 -2.46.44 4 4 0 0 1 -2.94-1.07 4.1 4.1 0 0 1 -1.06-3 3.42 3.42 0 0 1 1.43-3 8.41 8.41 0 0 1 4.35-1.08l2.24-.07v-.66a1.76 1.76 0 0 0 -2-2 9.07 9.07 0 0 0 -3.64.94l-1.17-2.39a10.5 10.5 0 0 1 4.94-1.11 6.12 6.12 0 0 1 4 1.13 4.18 4.18 0 0 1 1.39 3.45v8.62zm-1-6-1.36.05a4.34 4.34 0 0 0 -2.29.55 1.75 1.75 0 0 0 -.75 1.55q0 1.5 1.71 1.5a2.71 2.71 0 0 0 2-.71 2.46 2.46 0 0 0 .73-1.87z"/><path d="m619 17.18-.68-1.76h-.1a5.12 5.12 0 0 1 -1.88 1.58 5.92 5.92 0 0 1 -2.46.44 4 4 0 0 1 -2.88-1.1 4.1 4.1 0 0 1 -1.07-3 3.43 3.43 0 0 1 1.44-3 8.37 8.37 0 0 1 4.34-1.08l2.25-.07v-.63a1.76 1.76 0 0 0 -2-2 9.11 9.11 0 0 0 -3.65.94l-1.17-2.39a10.5 10.5 0 0 1 4.86-1.11 6.17 6.17 0 0 1 4 1.13 4.2 4.2 0 0 1 1.38 3.45v8.62zm-1-6-1.37.05a4.37 4.37 0 0 0 -2.29.55 1.75 1.75 0 0 0 -.75 1.55q0 1.5 1.71 1.5a2.71 2.71 0 0 0 2-.71 2.47 2.47 0 0 0 .74-1.87z"/><path d="m635.35 12.48a4.37 4.37 0 0 1 -1.65 3.61 7.17 7.17 0 0 1 -4.59 1.32 10.78 10.78 0 0 1 -4.79-1v-3.35a19.68 19.68 0 0 0 2.9 1.07 8.46 8.46 0 0 0 2.17.31 3.1 3.1 0 0 0 1.81-.44 1.53 1.53 0 0 0 .63-1.34 1.44 1.44 0 0 0 -.28-.88 3.13 3.13 0 0 0 -.81-.75 20 20 0 0 0 -2.2-1.14 11 11 0 0 1 -2.32-1.4 5.22 5.22 0 0 1 -1.22-1.58 4.4 4.4 0 0 1 -.46-2.08 4.37 4.37 0 0 1 1.46-3.53 6.33 6.33 0 0 1 4.24-1.3 9.89 9.89 0 0 1 2.52.31 17.08 17.08 0 0 1 2.5.88l-1.15 2.81a17.51 17.51 0 0 0 -2.24-.78 7.54 7.54 0 0 0 -1.74-.22 2.28 2.28 0 0 0 -1.56.48 1.54 1.54 0 0 0 -.57 1.24 1.57 1.57 0 0 0 .22.82 2.42 2.42 0 0 0 .7.69 21.7 21.7 0 0 0 2.28 1.18 9.14 9.14 0 0 1 3.25 2.28 4.45 4.45 0 0 1 .9 2.79z"/><path d="m339.88 30.54a5.18 5.18 0 0 1 -1.71 4.18 7.33 7.33 0 0 1 -4.85 1.44h-1.54v6h-3.59v-16.9h5.41a7.16 7.16 0 0 1 4.67 1.33 4.82 4.82 0 0 1 1.61 3.95zm-8.1 2.68h1.22a3.88 3.88 0 0 0 2.47-.65 2.29 2.29 0 0 0 .83-1.9 2.37 2.37 0 0 0 -.69-1.87 3.24 3.24 0 0 0 -2.16-.6h-1.63z"/><path d="m350.49 42.18-.68-1.76h-.09a5.34 5.34 0 0 1 -1.83 1.58 6.1 6.1 0 0 1 -2.46.43 4 4 0 0 1 -2.94-1.07 4.09 4.09 0 0 1 -1.07-3 3.4 3.4 0 0 1 1.44-3 8.37 8.37 0 0 1 4.35-1.09l2.24-.06v-.57a1.76 1.76 0 0 0 -2-2 9.07 9.07 0 0 0 -3.64.94l-1.17-2.38a10.51 10.51 0 0 1 4.94-1.2 6.22 6.22 0 0 1 4 1.13 4.22 4.22 0 0 1 1.42 3.43v8.62zm-1-6h-1.36a4.34 4.34 0 0 0 -2.29.56 1.75 1.75 0 0 0 -.76 1.55c0 1 .58 1.49 1.72 1.49a2.73 2.73 0 0 0 2-.71 2.46 2.46 0 0 0 .73-1.87z"/><path d="m364.53 42.18-.68-1.76h-.1a5.16 5.16 0 0 1 -1.83 1.58 6.1 6.1 0 0 1 -2.46.43 4 4 0 0 1 -2.93-1.07 4.09 4.09 0 0 1 -1.07-3 3.4 3.4 0 0 1 1.44-3 8.36 8.36 0 0 1 4.34-1.09l2.25-.06v-.57a1.76 1.76 0 0 0 -2-2 9.11 9.11 0 0 0 -3.64.94l-1.17-2.38a10.51 10.51 0 0 1 4.93-1.2 6.23 6.23 0 0 1 4 1.13 4.22 4.22 0 0 1 1.39 3.43v8.62zm-1-6h-1.37a4.36 4.36 0 0 0 -2.29.56 1.74 1.74 0 0 0 -.75 1.55c0 1 .57 1.49 1.71 1.49a2.71 2.71 0 0 0 2-.71 2.47 2.47 0 0 0 .74-1.87z"/><path d="m380.92 37.48a4.39 4.39 0 0 1 -1.64 3.61 7.17 7.17 0 0 1 -4.59 1.32 10.75 10.75 0 0 1 -4.79-1v-3.35a18.59 18.59 0 0 0 2.9 1.07 8.51 8.51 0 0 0 2.17.32 3.1 3.1 0 0 0 1.81-.45 1.56 1.56 0 0 0 .63-1.35 1.44 1.44 0 0 0 -.28-.88 3 3 0 0 0 -.82-.75 18.65 18.65 0 0 0 -2.19-1.14 10.31 10.31 0 0 1 -2.32-1.4 5.31 5.31 0 0 1 -1.24-1.56 4.47 4.47 0 0 1 -.46-2.09 4.34 4.34 0 0 1 1.52-3.52 6.28 6.28 0 0 1 4.2-1.29 10.35 10.35 0 0 1 2.52.31 18.34 18.34 0 0 1 2.5.88l-1.15 2.79a16.27 16.27 0 0 0 -2.24-.77 7 7 0 0 0 -1.74-.22 2.27 2.27 0 0 0 -1.56.47 1.55 1.55 0 0 0 -.55 1.24 1.63 1.63 0 0 0 .22.83 2.53 2.53 0 0 0 .7.68 22.27 22.27 0 0 0 2.27 1.18 9.1 9.1 0 0 1 3.26 2.28 4.46 4.46 0 0 1 .87 2.79z"/><path d="m116.54 71.18v-16.91h3.59v16.91z"/><path d="m132.15 71.18-.69-1.76h-.09a5.16 5.16 0 0 1 -1.83 1.58 5.93 5.93 0 0 1 -2.46.43 4 4 0 0 1 -2.93-1.06 4.07 4.07 0 0 1 -1.07-3 3.4 3.4 0 0 1 1.44-3 8.34 8.34 0 0 1 4.34-1.08l2.24-.07v-.57a1.76 1.76 0 0 0 -2-2 9.24 9.24 0 0 0 -3.64.94l-1.17-2.38a10.51 10.51 0 0 1 4.94-1.21 6.18 6.18 0 0 1 4 1.13 4.19 4.19 0 0 1 1.39 3.45v8.62zm-1.05-6h-1.36a4.34 4.34 0 0 0 -2.29.56 1.74 1.74 0 0 0 -.75 1.55c0 1 .57 1.49 1.71 1.49a2.7 2.7 0 0 0 2-.7 2.5 2.5 0 0 0 .73-1.88z"/><path d="m146.18 71.18-.68-1.76h-.09a5.27 5.27 0 0 1 -1.84 1.58 5.93 5.93 0 0 1 -2.46.43 4 4 0 0 1 -2.93-1.06 4.11 4.11 0 0 1 -1.07-3 3.4 3.4 0 0 1 1.44-3 8.38 8.38 0 0 1 4.35-1.08l2.24-.07v-.57a1.76 1.76 0 0 0 -2-2 9.28 9.28 0 0 0 -3.65.94l-1.17-2.38a10.52 10.52 0 0 1 5-1.17 6.22 6.22 0 0 1 4 1.13 4.22 4.22 0 0 1 1.38 3.45v8.62zm-1-6h-1.37a4.39 4.39 0 0 0 -2.29.56 1.74 1.74 0 0 0 -.75 1.55c0 1 .57 1.49 1.71 1.49a2.7 2.7 0 0 0 2-.7 2.51 2.51 0 0 0 .74-1.88z"/><path d="m162.58 66.48a4.37 4.37 0 0 1 -1.65 3.61 7.17 7.17 0 0 1 -4.59 1.32 10.78 10.78 0 0 1 -4.79-1v-3.35a19.89 19.89 0 0 0 2.9 1.08 8.46 8.46 0 0 0 2.17.31 3.08 3.08 0 0 0 1.81-.45 1.54 1.54 0 0 0 .63-1.34 1.45 1.45 0 0 0 -.28-.89 3.13 3.13 0 0 0 -.78-.77 22 22 0 0 0 -2.2-1.14 10.55 10.55 0 0 1 -2.32-1.4 5.31 5.31 0 0 1 -1.24-1.56 4.46 4.46 0 0 1 -.46-2.08 4.37 4.37 0 0 1 1.52-3.53 6.3 6.3 0 0 1 4.2-1.29 9.89 9.89 0 0 1 2.52.32 17.5 17.5 0 0 1 2.51.87l-1.19 2.81a15.83 15.83 0 0 0 -2.24-.77 7 7 0 0 0 -1.74-.22 2.33 2.33 0 0 0 -1.56.47 1.59 1.59 0 0 0 -.55 1.24 1.6 1.6 0 0 0 .22.83 2.53 2.53 0 0 0 .7.68 21.06 21.06 0 0 0 2.28 1.19 9 9 0 0 1 3.25 2.27 4.47 4.47 0 0 1 .88 2.79z"/></g></svg>